<svg width="96" height="35" viewBox="0 0 96 35" fill="none" xmlns="http://www.w3.org/2000/svg">
<path d="M3.65648 31.3366L1 33.0007V35.0007H94.3333V16.3341L91.628 5.69113L89.1932 13.0308L84.5942 8.70396L82.43 15.6934L78.1014 12.3651L74.5845 3.00073L72.1937 8.04523L69.0059 5.35483L67.412 8.70396L63.9586 11.6994L61.3021 5.69113L58.1144 10.7356L57.3174 16.1164H53.067L49.8793 20.8246L47.2228 23.0158L44.8319 18.0233L42.4411 23.0158L40.3159 17.0248L36.5969 18.0233L35.003 11.6994L32.8778 8.70396L31.5495 13.0308L27.8305 12.3651L25.4396 7.37263L23.8457 15.6934L19.5954 18.6889L18.2671 24.6799L16.4076 26.0112L13.7511 23.0158L10.2977 29.6724L8.96945 28.0082L6.57861 33.0007L3.65648 31.3366Z" fill="url(#paint0_linear_387_11345)"/>
<path d="M1 33.0007L3.65648 31.3366L6.57861 33.0007L8.96945 28.0082L10.2977 29.6724L13.7511 23.0158L16.4076 26.0113L18.2671 24.6799L19.5954 18.6889L23.8457 15.6934L25.4396 7.37263L27.8305 12.3651L31.5495 13.0308L32.8778 8.70396L35.003 11.6994L36.5969 18.0233L40.3159 17.0248L42.4411 23.0158L44.8319 18.0233L47.2228 23.0158L49.8793 20.8246L53.067 16.1164H57.3174L58.1144 10.7356L61.3021 5.69113L63.9586 11.6994L67.412 8.70396L69.0059 5.35483L72.1937 8.04523L74.5845 3.00073L78.1015 12.3651L82.43 15.6934L84.5942 8.70396L89.1932 13.0308L91.628 5.69113L94.3333 16.3341" stroke="#5BC08E" stroke-width="2"/>
<defs>
<linearGradient id="paint0_linear_387_11345" x1="47.6667" y1="-9.79775" x2="47.7166" y2="41.2507" gradientUnits="userSpaceOnUse">
<stop stop-color="#5BC08E" stop-opacity="0.16"/>
<stop offset="1" stop-color="#5BC08E" stop-opacity="0"/>
</linearGradient>
</defs>
</svg>
