<svg width="96" height="35" viewBox="0 0 96 35" fill="none" xmlns="http://www.w3.org/2000/svg">
<path d="M3.65648 31.3358L1 33V35H94.3333V16.3333L91.628 5.6904L89.1932 13.03L84.5942 8.70322L82.43 15.6927L78.1014 12.3644L74.5845 3L72.1937 8.04449L69.0059 5.3541L67.412 8.70322L63.9586 11.6987L61.3021 5.6904L58.1144 10.7349L57.3174 16.1157H53.067L49.8793 20.8239L47.2228 23.015L44.8319 18.0225L42.4411 23.015L40.3159 17.024L36.5969 18.0225L35.003 11.6987L32.8778 8.70322L31.5495 13.03L27.8305 12.3644L25.4396 7.37189L23.8457 15.6927L19.5954 18.6882L18.2671 24.6792L16.4076 26.0105L13.7511 23.015L10.2977 29.6717L8.96945 28.0075L6.57861 33L3.65648 31.3358Z" fill="url(#paint0_linear_387_11188)"/>
<path d="M1 33L3.65648 31.3358L6.57861 33L8.96945 28.0075L10.2977 29.6717L13.7511 23.015L16.4076 26.0105L18.2671 24.6792L19.5954 18.6882L23.8457 15.6927L25.4396 7.37189L27.8305 12.3644L31.5495 13.03L32.8778 8.70322L35.003 11.6987L36.5969 18.0225L40.3159 17.024L42.4411 23.015L44.8319 18.0225L47.2228 23.015L49.8793 20.8239L53.067 16.1157H57.3174L58.1144 10.7349L61.3021 5.6904L63.9586 11.6987L67.412 8.70322L69.0059 5.3541L72.1937 8.04449L74.5845 3L78.1015 12.3644L82.43 15.6927L84.5942 8.70322L89.1932 13.03L91.628 5.6904L94.3333 16.3333" stroke="#EA3943" stroke-width="2"/>
<defs>
<linearGradient id="paint0_linear_387_11188" x1="47.6667" y1="-9.79848" x2="47.7166" y2="41.25" gradientUnits="userSpaceOnUse">
<stop stop-color="#EA3943" stop-opacity="0.16"/>
<stop offset="1" stop-color="#EA3943" stop-opacity="0"/>
</linearGradient>
</defs>
</svg>
