<svg width="24" height="24" viewBox="0 0 24 24" fill="none" xmlns="http://www.w3.org/2000/svg">
<path fill-rule="evenodd" clip-rule="evenodd" d="M3.6001 4.8001C3.6001 4.13736 4.13736 3.6001 4.8001 3.6001H9.6001C10.2628 3.6001 10.8001 4.13736 10.8001 4.8001C10.8001 5.46284 10.2628 6.0001 9.6001 6.0001H7.69715L10.4486 8.75157C10.9173 9.2202 10.9173 9.98 10.4486 10.4486C9.98 10.9173 9.2202 10.9173 8.75157 10.4486L6.0001 7.69715V9.6001C6.0001 10.2628 5.46284 10.8001 4.8001 10.8001C4.13736 10.8001 3.6001 10.2628 3.6001 9.6001V4.8001ZM14.4001 6.0001C13.7374 6.0001 13.2001 5.46284 13.2001 4.8001C13.2001 4.13736 13.7374 3.6001 14.4001 3.6001H19.2001C19.8628 3.6001 20.4001 4.13736 20.4001 4.8001V9.6001C20.4001 10.2628 19.8628 10.8001 19.2001 10.8001C18.5374 10.8001 18.0001 10.2628 18.0001 9.6001V7.69715L15.2486 10.4486C14.78 10.9173 14.0202 10.9173 13.5516 10.4486C13.0829 9.98 13.0829 9.2202 13.5516 8.75157L16.303 6.0001H14.4001ZM3.6001 14.4001C3.6001 13.7374 4.13736 13.2001 4.8001 13.2001C5.46284 13.2001 6.0001 13.7374 6.0001 14.4001V16.303L8.75157 13.5516C9.2202 13.0829 9.98 13.0829 10.4486 13.5516C10.9173 14.0202 10.9173 14.78 10.4486 15.2486L7.69715 18.0001H9.6001C10.2628 18.0001 10.8001 18.5374 10.8001 19.2001C10.8001 19.8628 10.2628 20.4001 9.6001 20.4001H4.8001C4.13736 20.4001 3.6001 19.8628 3.6001 19.2001V14.4001ZM19.2001 13.2001C19.8628 13.2001 20.4001 13.7374 20.4001 14.4001V19.2001C20.4001 19.8628 19.8628 20.4001 19.2001 20.4001H14.4001C13.7374 20.4001 13.2001 19.8628 13.2001 19.2001C13.2001 18.5374 13.7374 18.0001 14.4001 18.0001H16.303L13.5516 15.2486C13.0829 14.78 13.0829 14.0202 13.5516 13.5516C14.0202 13.0829 14.78 13.0829 15.2486 13.5516L18.0001 16.303V14.4001C18.0001 13.7374 18.5374 13.2001 19.2001 13.2001Z" fill="currentColor"/>
</svg>
