<svg width="32" height="32" xmlns="http://www.w3.org/2000/svg"><defs><clipPath id="a"><path d="M16 0c8.837 0 16 7.163 16 16s-7.163 16-16 16S0 24.837 0 16 7.163 0 16 0Z"/></clipPath><clipPath id="b"><path d="M21.85 0A16 16 0 1 1 0 22.26 16 16 0 0 0 21.85 0Z"/></clipPath><clipPath id="c"><path d="M7.479 1.974C14.606-2.113 23.697.35 27.784 7.479a14.86 14.86 0 0 0-26.64 9.06 14.78 14.78 0 0 0 1.94 7.4 14.11 14.11 0 0 1-1.11-1.66C-2.113 15.15.35 6.06 7.479 1.974Z"/></clipPath><clipPath id="d"><path d="M1.18 0c.65 0 1.17.88 1.17 2 0 1.09-.53 2-1.17 2C.54 4 0 3.11 0 2 0 .89.53 0 1.18 0Z"/></clipPath><clipPath id="e"><path d="M1.17 0c.64 0 1.18.88 1.18 2 0 1.09-.53 2-1.18 2C.52 4 0 3.11 0 2 0 .89.53 0 1.17 0Z"/></clipPath><clipPath id="f"><path d="m.067.002.03.012c.367.377.754.734 1.16 1.07.409.287.844.535 1.3.74a8.8 8.8 0 0 0 1.35.57c.3.12.64.21 1 .31l.45.15-.02.03.05.05c.06.04 0 .09 0 .09a3.55 3.55 0 0 1-1.7.3h-.07a4.13 4.13 0 0 1-1.64-.47 4 4 0 0 1-1.35-1.15 3 3 0 0 1-.62-1.63.07.07 0 0 1 0-.06.08.08 0 0 1 .09 0Z"/></clipPath><clipPath id="g"><path d="M5.387.015a.07.07 0 0 1 0 .06 3 3 0 0 1-.62 1.63 4 4 0 0 1-1.34 1.15 4 4 0 0 1-1.63.47h-.07a3.55 3.55 0 0 1-1.7-.3s-.06-.05 0-.09c.06-.04 0 0 0-.05l.01.02.5-.15c.36-.1.7-.19 1-.31a8.8 8.8 0 0 0 1.35-.57 7.85 7.85 0 0 0 1.24-.74c.412-.346.8-.72 1.16-1.12a.09.09 0 0 1 .1 0Z"/></clipPath><clipPath id="h"><path d="M4.92 0A5.06 5.06 0 0 1 8.3 1.22a4.27 4.27 0 0 1 1.5 3.07.33.33 0 0 1-.12.25.31.31 0 0 1-.44-.06 6 6 0 0 0-2-1.76 5 5 0 0 0-2.32-.55 5.35 5.35 0 0 0-2.3.6 5.9 5.9 0 0 0-1.07.72c-.365.3-.7.636-1 1a.31.31 0 0 1-.24.12.33.33 0 0 1-.31-.32 4 4 0 0 1 .44-1.68 4.7 4.7 0 0 1 1.12-1.39A5.35 5.35 0 0 1 4.92 0Z"/></clipPath><clipPath id="i"><path d="M4.237 0c4.74 5.42 4.21 8.53 4.21 8.53a4.22 4.22 0 0 1-8.43 0S.004 8.452 0 8.3v-.112C.011 7.244.41 4.374 4.236 0Z"/></clipPath><clipPath id="j"><path d="M6.43 0a7 7 0 0 1 .92 3.67A4.21 4.21 0 0 1 0 6.48C2.16 6.42 5.59 5.42 6.43 0Z"/></clipPath></defs><g clip-path="url(#a)"><path fill="#F8D05D" d="M0 0h32v32H0V0z"/></g><g clip-path="url(#b)" transform="translate(2.52 2.34)"><path fill="#F2C353" d="M0 0h29.476v29.634H0V0z"/></g><g clip-path="url(#c)" transform="translate(1.026 1.151)"><path fill="#F3D77F" d="M0 0h27.784v23.939H0V0z"/></g><g clip-path="url(#d)" transform="translate(8.93 10.12)"><path fill="#303030" d="M0 0h2.35v4H0V0z"/></g><g clip-path="url(#e)" transform="translate(20.72 10.12)"><path fill="#303030" d="M0 0h2.35v4H0V0z"/></g><g clip-path="url(#f)" transform="translate(20.093 5.916)"><path fill="#414041" d="M0 0h5.413v3.333H0V0z"/></g><g clip-path="url(#g)" transform="translate(6.513 5.865)"><path fill="#414041" d="M0 0h5.393v3.334H0V0z"/></g><g clip-path="url(#h)" transform="translate(11.08 17.21)"><path fill="#5E4938" d="M0 0h9.8v4.611H0V0z"/></g><g clip-path="url(#i)" transform="translate(19.073 15.14)"><path fill="#7BC1D7" d="M0 0h8.465v12.545H0V0z"/></g><g><g clip-path="url(#j)" transform="translate(20.17 20)"><path fill="#5DB3CB" d="M0 0h7.353v7.886H0V0z"/></g></g></svg>