<svg width="32" height="32" xmlns="http://www.w3.org/2000/svg"><defs><clipPath id="a"><path d="M16 0c8.837 0 16 7.163 16 16s-7.163 16-16 16S0 24.837 0 16 7.163 0 16 0Z"/></clipPath><clipPath id="b"><path d="M21.85 0A16 16 0 1 1 0 22.26 16 16 0 0 0 21.85 0Z"/></clipPath><clipPath id="c"><path d="M7.479 1.974C14.606-2.113 23.697.35 27.784 7.479a14.86 14.86 0 0 0-26.64 9.06 14.78 14.78 0 0 0 1.94 7.4 14.11 14.11 0 0 1-1.11-1.66C-2.113 15.15.35 6.06 7.479 1.974Z"/></clipPath><clipPath id="d"><path d="m.911.043.091.042 3.25 1.91a.67.67 0 0 1 .24.92.65.65 0 0 1-.17.2l-3.11 2.43a.71.71 0 0 1-.42.14.68.68 0 0 1-.68-.68.67.67 0 0 1 .31-.53l2.31-1.8-2.39-1.4a.7.7 0 0 1-.26-.93.68.68 0 0 1 .83-.302Z"/></clipPath><clipPath id="e"><path d="M4.515.32a.67.67 0 0 1-.124.866l-.086.063-2.39 1.41 2.28 1.77a.68.68 0 0 1 .11 1 .67.67 0 0 1-.53.26.71.71 0 0 1-.42-.14L.265 3.13a.67.67 0 0 1-.12-.95 1 1 0 0 1 .19-.17L3.585.1a.68.68 0 0 1 .93.22Z"/></clipPath><clipPath id="f"><path d="M18.34 0A9.23 9.23 0 0 1 0 0Z"/></clipPath><clipPath id="g"><path d="M0 1.312a15.21 15.21 0 0 1 12.36 0l.09.2A9.22 9.22 0 0 1 0 1.312Z"/></clipPath></defs><g clip-path="url(#a)"><path fill="#F8D05D" d="M0 0h32v32H0V0z"/></g><g clip-path="url(#b)" transform="translate(2.52 2.34)"><path fill="#F2C353" d="M0 0h29.476v29.634H0V0z"/></g><g clip-path="url(#c)" transform="translate(1.026 1.151)"><path fill="#F3D77F" d="M0 0h27.784v23.939H0V0z"/></g><g clip-path="url(#d)" transform="translate(6.578 10.575)"><path fill="#303030" d="M0 0h4.585v5.685H0V0z"/></g><g clip-path="url(#e)" transform="translate(20.855 10.57)"><path fill="#303030" d="M0 0h4.621v5.689H0V0z"/></g><g clip-path="url(#f)" transform="translate(6.83 18.12)"><path fill="#695341" d="M0 0h18.34v8.179H0V0z"/></g><g clip-path="url(#g)" transform="translate(9.67 22.468)"><path fill="#EE6669" d="M0 0h12.45v3.832H0V0z"/></g></svg>