<svg width="24" height="21" viewBox="0 0 24 21" fill="none" xmlns="http://www.w3.org/2000/svg">
<path d="M9.40631 11.9229C8.79937 14.7514 6.37161 16.9514 3.33691 16.9514V20.0943C8.19243 20.0943 11.8341 16.6371 12.7445 11.9229H9.40631Z" fill="#0054F8"/>
<path d="M9.40631 8.46539H12.7445C12.1376 3.75111 8.19243 0.293945 3.33691 0.293945V3.4368C6.37161 3.4368 8.79937 5.63682 9.40631 8.46539Z" fill="#0054F8"/>
<path d="M3.0347 0.295898H0V20.0959H3.0347V0.295898Z" fill="#0054F8"/>
<path d="M14.261 8.46637H10.9229C11.5298 3.75208 15.4749 0.294922 20.3304 0.294922V3.43778C17.5992 3.43778 14.868 5.6378 14.261 8.46637Z" fill="#0054F8"/>
<path d="M23.3658 0.293945H20.3311V20.0939H23.3658V0.293945Z" fill="#0054F8"/>
</svg>
