<svg width="154" height="49" viewBox="0 0 154 49" fill="none" xmlns="http://www.w3.org/2000/svg">
<g clip-path="url(#clip0_564_7967)">
<path d="M9.40631 25.9229C8.79937 28.7514 6.37161 30.9514 3.33691 30.9514V34.0943C8.19243 34.0943 11.8341 30.6371 12.7445 25.9229H9.40631Z" fill="#0054F8"/>
<path d="M9.40631 22.4654H12.7445C12.1376 17.7511 8.19243 14.2939 3.33691 14.2939V17.4368C6.37161 17.4368 8.79937 19.6368 9.40631 22.4654Z" fill="#0054F8"/>
<path d="M3.0347 14.2959H0V34.0959H3.0347V14.2959Z" fill="#0054F8"/>
<path d="M14.261 22.4664H10.9229C11.5298 17.7521 15.4749 14.2949 20.3304 14.2949V17.4378C17.5992 17.4378 14.868 19.6378 14.261 22.4664Z" fill="#0054F8"/>
<path d="M23.3658 14.2939H20.3311V34.0939H23.3658V14.2939Z" fill="#0054F8"/>
<path d="M28.1129 31V17.4749H31.9307C33.1074 17.4749 34.1478 17.735 35.0519 18.2552C35.9561 18.7754 36.6528 19.5154 37.142 20.4753C37.6374 21.4352 37.8882 22.5375 37.8944 23.7823V24.6462C37.8944 25.9219 37.6467 27.0397 37.1513 27.9996C36.6621 28.9595 35.9592 29.6964 35.0426 30.2104C34.1323 30.7244 33.0702 30.9876 31.8564 31H28.1129ZM29.8964 18.9426V29.5416H31.7728C33.1476 29.5416 34.2159 29.1143 34.9776 28.2597C35.7455 27.4051 36.1295 26.1882 36.1295 24.609V23.8194C36.1295 22.2836 35.7672 21.0915 35.0426 20.2431C34.3243 19.3884 33.3024 18.9549 31.9772 18.9426H29.8964ZM44.4991 31.1858C43.1367 31.1858 42.0281 30.7399 41.1735 29.8481C40.3189 28.9502 39.8916 27.7519 39.8916 26.2532V25.9374C39.8916 24.9403 40.0805 24.0516 40.4583 23.2714C40.8422 22.4849 41.3748 21.8718 42.056 21.4321C42.7434 20.9862 43.4865 20.7633 44.2854 20.7633C45.5921 20.7633 46.6077 21.1937 47.3323 22.0545C48.0569 22.9153 48.4191 24.1476 48.4191 25.7516V26.4668H41.6101C41.6349 27.4577 41.9229 28.2597 42.474 28.8728C43.0314 29.4797 43.7374 29.7831 44.592 29.7831C45.1989 29.7831 45.7129 29.6593 46.134 29.4115C46.5551 29.1638 46.9236 28.8356 47.2394 28.4269L48.2891 29.2443C47.4469 30.5386 46.1835 31.1858 44.4991 31.1858ZM44.2854 22.1752C43.5918 22.1752 43.0097 22.4291 42.539 22.9369C42.0684 23.4386 41.7773 24.1445 41.6659 25.0549H46.7006V24.9248C46.6511 24.0516 46.4158 23.3766 45.9946 22.8998C45.5735 22.4167 45.0038 22.1752 44.2854 22.1752ZM53.7883 24.6183L56.0177 20.949H58.0242L54.7358 25.9188L58.1264 31H56.1385L53.8162 27.2379L51.4939 31H49.4967L52.8873 25.9188L49.5989 20.949H51.5868L53.7883 24.6183ZM62.4273 17.4749L66.849 28.5105L71.2707 17.4749H73.5837V31H71.8002V25.733L71.9674 20.048L67.5271 31H66.1616L61.7306 20.0759L61.9071 25.733V31H60.1236V17.4749H62.4273ZM82.6686 31C82.5695 30.8018 82.489 30.4488 82.4271 29.941C81.6282 30.7709 80.6745 31.1858 79.566 31.1858C78.5751 31.1858 77.7608 30.9071 77.1229 30.3498C76.4912 29.7862 76.1754 29.074 76.1754 28.2132C76.1754 27.1666 76.5717 26.3554 77.3644 25.7794C78.1633 25.1973 79.2842 24.9063 80.7271 24.9063H82.3992V24.1167C82.3992 23.516 82.2196 23.0391 81.8604 22.6861C81.5012 22.3269 80.9717 22.1474 80.2719 22.1474C79.6589 22.1474 79.1449 22.3022 78.7299 22.6118C78.315 22.9215 78.1076 23.2961 78.1076 23.7358H76.3798C76.3798 23.2342 76.5563 22.7512 76.9092 22.2867C77.2684 21.816 77.7515 21.4445 78.3584 21.172C78.9715 20.8995 79.6434 20.7633 80.3741 20.7633C81.5322 20.7633 82.4394 21.0543 83.0959 21.6364C83.7523 22.2124 84.0929 23.0082 84.1177 24.0238V28.6498C84.1177 29.5726 84.2354 30.3064 84.4707 30.8514V31H82.6686ZM79.8168 29.6902C80.3556 29.6902 80.8665 29.5509 81.3495 29.2722C81.8325 28.9935 82.1824 28.6312 82.3992 28.1854V26.1231H81.0522C78.9467 26.1231 77.8939 26.7393 77.8939 27.9717C77.8939 28.5105 78.0735 28.9316 78.4327 29.235C78.7919 29.5385 79.2532 29.6902 79.8168 29.6902ZM91.6698 22.4911C91.4097 22.4477 91.128 22.426 90.8245 22.426C89.6974 22.426 88.9326 22.906 88.5301 23.8659V31H86.8116V20.949H88.4836L88.5115 22.1102C89.0751 21.2122 89.8739 20.7633 90.9081 20.7633C91.2425 20.7633 91.4964 20.8066 91.6698 20.8933V22.4911ZM96.0637 26.3461L94.9861 27.4701V31H93.2676V16.7317H94.9861V25.3614L95.9057 24.256L99.0362 20.949H101.126L97.2155 25.1478L101.581 31H99.5657L96.0637 26.3461ZM106.886 31.1858C105.523 31.1858 104.415 30.7399 103.56 29.8481C102.705 28.9502 102.278 27.7519 102.278 26.2532V25.9374C102.278 24.9403 102.467 24.0516 102.845 23.2714C103.229 22.4849 103.761 21.8718 104.443 21.4321C105.13 20.9862 105.873 20.7633 106.672 20.7633C107.979 20.7633 108.994 21.1937 109.719 22.0545C110.443 22.9153 110.806 24.1476 110.806 25.7516V26.4668H103.997C104.021 27.4577 104.309 28.2597 104.861 28.8728C105.418 29.4797 106.124 29.7831 106.979 29.7831C107.585 29.7831 108.099 29.6593 108.521 29.4115C108.942 29.1638 109.31 28.8356 109.626 28.4269L110.676 29.2443C109.833 30.5386 108.57 31.1858 106.886 31.1858ZM106.672 22.1752C105.978 22.1752 105.396 22.4291 104.926 22.9369C104.455 23.4386 104.164 24.1445 104.052 25.0549H109.087V24.9248C109.038 24.0516 108.802 23.3766 108.381 22.8998C107.96 22.4167 107.39 22.1752 106.672 22.1752ZM115.134 18.5153V20.949H117.011V22.2774H115.134V28.5105C115.134 28.913 115.218 29.2165 115.385 29.4208C115.552 29.619 115.837 29.7181 116.24 29.7181C116.438 29.7181 116.711 29.6809 117.057 29.6066V31C116.605 31.1239 116.166 31.1858 115.738 31.1858C114.97 31.1858 114.391 30.9536 114.001 30.4891C113.611 30.0246 113.416 29.3651 113.416 28.5105V22.2774H111.586V20.949H113.416V18.5153H115.134ZM129.245 26.7084C129.078 28.1389 128.548 29.2443 127.656 30.0246C126.771 30.7987 125.591 31.1858 124.117 31.1858C122.519 31.1858 121.238 30.6129 120.271 29.4673C119.312 28.3216 118.832 26.7889 118.832 24.8691V23.5686C118.832 22.3115 119.055 21.206 119.5 20.2523C119.952 19.2987 120.59 18.5679 121.414 18.0601C122.238 17.5461 123.191 17.2891 124.275 17.2891C125.712 17.2891 126.864 17.6916 127.731 18.4967C128.598 19.2956 129.102 20.4041 129.245 21.8222H127.452C127.297 20.7447 126.96 19.9644 126.439 19.4813C125.925 18.9983 125.204 18.7568 124.275 18.7568C123.136 18.7568 122.241 19.1779 121.59 20.0201C120.946 20.8623 120.624 22.0607 120.624 23.6151V24.9248C120.624 26.3925 120.931 27.5599 121.544 28.4269C122.157 29.2939 123.015 29.7274 124.117 29.7274C125.108 29.7274 125.867 29.5044 126.393 29.0585C126.926 28.6065 127.279 27.8231 127.452 26.7084H129.245ZM137.624 31C137.525 30.8018 137.444 30.4488 137.382 29.941C136.583 30.7709 135.63 31.1858 134.521 31.1858C133.53 31.1858 132.716 30.9071 132.078 30.3498C131.446 29.7862 131.131 29.074 131.131 28.2132C131.131 27.1666 131.527 26.3554 132.32 25.7794C133.118 25.1973 134.239 24.9063 135.682 24.9063H137.354V24.1167C137.354 23.516 137.175 23.0391 136.816 22.6861C136.456 22.3269 135.927 22.1474 135.227 22.1474C134.614 22.1474 134.1 22.3022 133.685 22.6118C133.27 22.9215 133.063 23.2961 133.063 23.7358H131.335C131.335 23.2342 131.511 22.7512 131.864 22.2867C132.224 21.816 132.707 21.4445 133.314 21.172C133.927 20.8995 134.599 20.7633 135.329 20.7633C136.487 20.7633 137.395 21.0543 138.051 21.6364C138.707 22.2124 139.048 23.0082 139.073 24.0238V28.6498C139.073 29.5726 139.191 30.3064 139.426 30.8514V31H137.624ZM134.772 29.6902C135.311 29.6902 135.822 29.5509 136.305 29.2722C136.788 28.9935 137.138 28.6312 137.354 28.1854V26.1231H136.007C133.902 26.1231 132.849 26.7393 132.849 27.9717C132.849 28.5105 133.029 28.9316 133.388 29.235C133.747 29.5385 134.208 29.6902 134.772 29.6902ZM150.257 26.086C150.257 27.6156 149.907 28.848 149.207 29.7831C148.508 30.7182 147.56 31.1858 146.365 31.1858C145.145 31.1858 144.185 30.7987 143.485 30.0246V34.8643H141.767V20.949H143.337L143.42 22.0637C144.12 21.1968 145.092 20.7633 146.337 20.7633C147.545 20.7633 148.498 21.2184 149.198 22.1288C149.904 23.0391 150.257 24.3056 150.257 25.9281V26.086ZM148.539 25.8909C148.539 24.7576 148.297 23.8628 147.814 23.2063C147.331 22.5499 146.668 22.2217 145.826 22.2217C144.786 22.2217 144.005 22.683 143.485 23.6058V28.4083C143.999 29.3248 144.786 29.7831 145.845 29.7831C146.668 29.7831 147.322 29.458 147.805 28.8077C148.294 28.1513 148.539 27.179 148.539 25.8909Z" fill="white"/>
</g>
<defs>
<clipPath id="clip0_564_7967">
<rect width="154" height="49" fill="white"/>
</clipPath>
</defs>
</svg>
