<svg width="28" height="28" viewBox="0 0 28 28" fill="none" xmlns="http://www.w3.org/2000/svg">
<circle cx="14" cy="14" r="14" fill="#EDF0F4"/>
<circle cx="14" cy="14" r="10.5" fill="#1347E8"/>
<path fill-rule="evenodd" clip-rule="evenodd" d="M14.0877 6.8252C10.0768 6.8252 6.8252 10.0768 6.8252 14.0877C6.8252 18.0986 10.0768 21.3502 14.0877 21.3502C18.0986 21.3502 21.3502 18.0986 21.3502 14.0877C21.3502 10.0768 18.0986 6.8252 14.0877 6.8252ZM20.9804 13.7908L20.3928 13.7967L20.3901 13.5504L20.9784 13.5452L20.981 13.7908H20.9804ZM20.8298 12.5212L20.8298 12.5212V12.5218L20.8298 12.5212ZM20.7955 12.2776L20.8298 12.5212L20.2469 12.6024L20.2132 12.3581L20.7955 12.2776ZM20.3282 10.9748L20.4299 11.1993L19.8945 11.4422L19.7928 11.2184L20.3276 10.9748H20.3282ZM19.7562 10.0405L19.5938 9.85559L19.1521 10.2438L19.3138 10.4287L19.7562 10.0405ZM18.7329 8.93576L18.919 9.09686L18.5355 9.54185L18.3486 9.38141L18.7329 8.93576ZM17.9116 8.23891L17.7056 8.10488L17.3854 8.59873L17.5914 8.7321L17.9116 8.23891ZM16.5375 7.5282L16.7758 7.59092L16.6266 8.15937L16.3883 8.09665L16.5382 7.52886L16.5375 7.5282ZM15.4975 7.23242L15.2526 7.21262L15.2037 7.79824L15.4487 7.8187L15.4975 7.23242ZM13.9231 7.05747H14.1687V7.64573H13.9231V7.05747ZM12.8807 7.7984L12.8318 7.21277L12.5862 7.23324L12.6351 7.81952L12.8807 7.7984ZM11.5466 7.5282L11.6958 8.09665L11.4581 8.15937L11.3082 7.59158L11.5459 7.5282H11.5466ZM10.699 8.59873L10.3788 8.10488L10.1722 8.23891L10.4924 8.7321L10.699 8.59873ZM9.35153 8.93642L9.73512 9.38141L9.54893 9.54185L9.16534 9.09686L9.35153 8.93576V8.93642ZM8.93328 10.2423L8.49093 9.85412V9.85478L8.32851 10.0396L8.7702 10.4272L8.93328 10.2423ZM7.75711 10.974L8.2919 11.2176L8.19088 11.4421L7.65544 11.1978L7.75711 10.974ZM7.87281 12.3575L7.28983 12.2769V12.2763L7.25616 12.5205L7.83848 12.6017L7.87281 12.3575ZM7.10762 13.5442L7.69522 13.5495L7.69324 13.7957L7.10563 13.7898L7.10762 13.5442ZM7.74612 14.8663L7.16116 14.9257L7.18559 15.17L7.77055 15.1105L7.74612 14.8663ZM7.42762 16.1759L8.0007 16.0425L8.05682 16.2822L7.48374 16.4156L7.42762 16.1759ZM7.94648 17.456L8.06796 17.6699L8.57898 17.3781L8.45684 17.1642L7.94648 17.456ZM8.90212 18.7181L8.72319 18.549L9.12791 18.1219L9.30617 18.2909L8.90212 18.7181ZM9.64243 19.412L9.84248 19.5547L10.1838 19.076L9.98377 18.9327L9.64243 19.412ZM10.9411 20.2879L10.7232 20.1737L10.9966 19.6535L11.2144 19.7677L10.9411 20.2879ZM11.914 20.7142L12.157 20.7552L12.254 20.1755L12.0111 20.1346L11.914 20.7142ZM13.2191 20.9547L13.2144 20.3664L13.4607 20.3638L13.4653 20.952L13.2191 20.9547ZM14.0873 7.97412C10.7162 7.97412 7.97363 10.7167 7.97363 14.0878C7.97363 17.4589 10.7162 20.2015 14.0873 20.2015C17.4585 20.2015 20.201 17.4589 20.201 14.0878C20.201 10.7167 17.4585 7.97412 14.0873 7.97412ZM14.5674 21.0074L14.5595 21.008L14.506 20.4231L14.751 20.4006L14.7589 20.3993L14.8124 20.9849L14.5674 21.0074ZM15.775 20.1524L15.8773 20.7314L16.1196 20.6892L16.0173 20.1095L15.775 20.1524ZM17.1278 20.2997L16.9264 19.7471L17.1575 19.6633L17.3588 20.2159L17.1278 20.2997ZM17.8751 19.1576L18.2382 19.6197V19.6191L18.4316 19.4665L18.0679 19.0044L17.8751 19.1576ZM19.1847 18.6976L18.7622 18.2896L18.9325 18.112L19.3551 18.5214L19.1847 18.6976ZM19.4827 17.3572L19.9581 17.7039L20.1033 17.5045L19.6279 17.1585L19.4827 17.3572ZM20.5873 16.5219L20.0314 16.3278L20.1126 16.0954L20.6679 16.2895L20.5873 16.5212V16.5219ZM20.346 15.1553L20.9336 15.1817L20.9449 14.9361L20.3573 14.9091L20.346 15.1553ZM16.4227 17.2121H16.422C16.5204 17.3177 16.5231 17.4788 16.426 17.5752C16.3289 17.671 16.1685 17.6663 16.0635 17.566V17.5667L15.88 17.3818L15.4627 16.9586C15.1919 17.0877 14.8936 17.1483 14.5939 17.1349H13.4464C12.4072 17.1732 11.4472 16.6542 11.5251 14.9667C11.527 14.916 11.5238 14.4333 11.5219 14.1384L11.5219 14.1382C11.5211 14.0225 11.5205 13.9359 11.5205 13.9156L11.5225 13.2342C11.5205 11.5507 11.9318 10.7874 13.0661 10.5174C13.1948 10.4864 13.8967 10.4712 14.0307 10.4712H14.0908C14.2255 10.4712 14.8448 10.4864 14.9735 10.5174C16.1078 10.7874 16.5191 11.5507 16.5171 13.2342L16.5191 13.9163C16.5191 13.935 16.5186 14.0108 16.5179 14.1138C16.516 14.4052 16.5127 14.9147 16.5151 14.9673C16.5574 15.8785 16.2959 16.2746 15.8833 16.6668L16.2398 17.0266L16.4227 17.2121ZM15.0539 16.544C14.9284 16.581 14.7984 16.5994 14.667 16.5994C14.6491 16.5994 14.6313 16.5994 14.6135 16.5981H13.4363L13.4264 16.5988L13.3729 16.6001C13.126 16.6001 12.7715 16.5367 12.4856 16.237C12.1779 15.9148 12.0307 15.6454 12.0604 14.9918C12.063 14.9462 12.063 14.9449 12.0584 14.1249C12.0582 13.9015 12.0582 13.6782 12.0584 13.4548C12.0589 13.2508 12.0594 13.2472 12.0596 13.2455C12.0597 13.2449 12.0597 13.2445 12.0597 13.2336C12.0584 12.4876 12.1429 11.8392 12.3245 11.5467C12.4321 11.3724 12.6183 11.177 13.1821 11.041C13.293 11.0245 13.8608 11.0073 14.0305 11.0073H14.0913C14.3473 11.0088 14.6032 11.0201 14.8584 11.041C15.4216 11.177 15.6078 11.3724 15.7154 11.5467C15.897 11.8392 15.9815 12.4876 15.9808 13.2336C15.9808 13.2442 15.9809 13.2446 15.981 13.2452C15.9812 13.2468 15.9817 13.2503 15.9821 13.4548L15.9828 13.9156L15.9815 14.1249C15.9769 14.9321 15.9775 14.9454 15.9794 14.9897L15.9795 14.9918C16.0092 15.6454 15.8626 15.9148 15.555 16.237C15.5394 16.2537 15.5231 16.2698 15.5061 16.2852L15.1767 15.9511L14.9938 15.7662C14.8888 15.6665 14.7284 15.6619 14.6313 15.7583C14.5343 15.8541 14.5362 16.0145 14.6353 16.1201L14.8188 16.3063L15.0539 16.544Z" fill="white"/>
</svg>
