<svg width="1242" height="494" viewBox="0 0 1242 494" fill="none" xmlns="http://www.w3.org/2000/svg">
<line x1="52.5" y1="24.5" x2="1239.5" y2="24.5" stroke="#E5ECF2" stroke-linecap="round"/>
<line x1="52.5" y1="77.5" x2="1239.5" y2="77.5" stroke="#E5ECF2" stroke-linecap="round"/>
<line x1="52.5" y1="130.5" x2="1239.5" y2="130.5" stroke="#E5ECF2" stroke-linecap="round"/>
<line x1="52.5" y1="183.5" x2="1239.5" y2="183.5" stroke="#E5ECF2" stroke-linecap="round"/>
<line x1="52.5" y1="236.5" x2="1239.5" y2="236.5" stroke="#E5ECF2" stroke-linecap="round"/>
<line x1="52.5" y1="289.5" x2="1239.5" y2="289.5" stroke="#E5ECF2" stroke-linecap="round"/>
<line x1="52.5" y1="342.5" x2="1239.5" y2="342.5" stroke="#E5ECF2" stroke-linecap="round"/>
<line x1="52.5" y1="395.5" x2="1239.5" y2="395.5" stroke="#E5ECF2" stroke-linecap="round"/>
<line x1="52.5" y1="448.5" x2="1239.5" y2="448.5" stroke="#E5ECF2" stroke-linecap="round"/>
<line x1="65.5" y1="0.5" x2="65.5" y2="493.5" stroke="#E5ECF2" stroke-linecap="round"/>
<line x1="137.5" y1="25.5" x2="137.5" y2="448.5" stroke="#E5ECF2" stroke-linecap="round"/>
<line x1="296.5" y1="25.5" x2="296.5" y2="448.5" stroke="#E5ECF2" stroke-linecap="round"/>
<line x1="450.5" y1="25.5" x2="450.5" y2="448.5" stroke="#E5ECF2" stroke-linecap="round"/>
<line x1="608.5" y1="25.5" x2="608.5" y2="448.5" stroke="#E5ECF2" stroke-linecap="round"/>
<line x1="765.5" y1="25.5" x2="765.5" y2="448.5" stroke="#E5ECF2" stroke-linecap="round"/>
<line x1="927.5" y1="25.5" x2="927.5" y2="448.5" stroke="#E5ECF2" stroke-linecap="round"/>
<line x1="1088.5" y1="25.5" x2="1088.5" y2="448.5" stroke="#E5ECF2" stroke-linecap="round"/>
<path d="M3.598 30V20.956H3.388L1.484 24.442H0.252L2.59 20.2H4.732V30H3.598ZM7.61556 30.196C7.3449 30.196 7.11623 30.1073 6.92956 29.93C6.75223 29.7527 6.66356 29.524 6.66356 29.244C6.66356 28.964 6.75223 28.7353 6.92956 28.558C7.11623 28.3807 7.3449 28.292 7.61556 28.292C7.89556 28.292 8.12423 28.3807 8.30156 28.558C8.4789 28.7353 8.56756 28.964 8.56756 29.244C8.56756 29.524 8.4789 29.7527 8.30156 29.93C8.12423 30.1073 7.89556 30.196 7.61556 30.196ZM13.6346 30.196C12.9439 30.196 12.3232 30.0653 11.7726 29.804C11.2312 29.5427 10.8019 29.1647 10.4846 28.67C10.1766 28.1753 10.0226 27.578 10.0226 26.878V26.612H11.1566V26.864C11.1566 27.5827 11.3852 28.1473 11.8426 28.558C12.2999 28.9687 12.8972 29.174 13.6346 29.174C14.3812 29.174 14.9599 28.9827 15.3706 28.6C15.7906 28.208 16.0006 27.718 16.0006 27.13V27.018C16.0006 26.5887 15.8979 26.2433 15.6926 25.982C15.4872 25.7113 15.2072 25.5153 14.8526 25.394C14.5072 25.2633 14.1246 25.198 13.7046 25.198H12.1086V23.784L15.8466 21.39V21.222H10.2606V20.2H17.0506V21.782L13.3966 24.134V24.302H14.0966C14.6472 24.302 15.1512 24.4047 15.6086 24.61C16.0752 24.806 16.4439 25.1047 16.7146 25.506C16.9946 25.898 17.1346 26.3927 17.1346 26.99V27.144C17.1346 27.76 16.9899 28.2967 16.7006 28.754C16.4112 29.2113 16.0052 29.566 15.4826 29.818C14.9599 30.07 14.3439 30.196 13.6346 30.196ZM22.3218 30.196C21.2111 30.196 20.3245 29.8693 19.6618 29.216C19.0085 28.5533 18.6818 27.564 18.6818 26.248V23.952C18.6818 22.6453 19.0085 21.6607 19.6618 20.998C20.3245 20.3353 21.2111 20.004 22.3218 20.004C23.4418 20.004 24.3285 20.3353 24.9818 20.998C25.6445 21.6607 25.9758 22.6453 25.9758 23.952V26.248C25.9758 27.564 25.6445 28.5533 24.9818 29.216C24.3285 29.8693 23.4418 30.196 22.3218 30.196ZM22.3218 29.174C23.1618 29.174 23.7918 28.922 24.2118 28.418C24.6318 27.914 24.8418 27.2093 24.8418 26.304V23.882C24.8418 22.9767 24.6271 22.2767 24.1978 21.782C23.7685 21.278 23.1431 21.026 22.3218 21.026C21.5005 21.026 20.8751 21.278 20.4458 21.782C20.0258 22.286 19.8158 22.986 19.8158 23.882V26.304C19.8158 27.2187 20.0258 27.928 20.4458 28.432C20.8658 28.9267 21.4911 29.174 22.3218 29.174ZM31.2905 30.196C30.1799 30.196 29.2932 29.8693 28.6305 29.216C27.9772 28.5533 27.6505 27.564 27.6505 26.248V23.952C27.6505 22.6453 27.9772 21.6607 28.6305 20.998C29.2932 20.3353 30.1799 20.004 31.2905 20.004C32.4105 20.004 33.2972 20.3353 33.9505 20.998C34.6132 21.6607 34.9445 22.6453 34.9445 23.952V26.248C34.9445 27.564 34.6132 28.5533 33.9505 29.216C33.2972 29.8693 32.4105 30.196 31.2905 30.196ZM31.2905 29.174C32.1305 29.174 32.7605 28.922 33.1805 28.418C33.6005 27.914 33.8105 27.2093 33.8105 26.304V23.882C33.8105 22.9767 33.5959 22.2767 33.1665 21.782C32.7372 21.278 32.1119 21.026 31.2905 21.026C30.4692 21.026 29.8439 21.278 29.4145 21.782C28.9945 22.286 28.7845 22.986 28.7845 23.882V26.304C28.7845 27.2187 28.9945 27.928 29.4145 28.432C29.8345 28.9267 30.4599 29.174 31.2905 29.174Z" fill="#868FA0"/>
<path d="M3.598 83V73.956H3.388L1.484 77.442H0.252L2.59 73.2H4.732V83H3.598ZM7.61556 83.196C7.3449 83.196 7.11623 83.1073 6.92956 82.93C6.75223 82.7527 6.66356 82.524 6.66356 82.244C6.66356 81.964 6.75223 81.7353 6.92956 81.558C7.11623 81.3807 7.3449 81.292 7.61556 81.292C7.89556 81.292 8.12423 81.3807 8.30156 81.558C8.4789 81.7353 8.56756 81.964 8.56756 82.244C8.56756 82.524 8.4789 82.7527 8.30156 82.93C8.12423 83.1073 7.89556 83.196 7.61556 83.196ZM10.1346 83V81.978C10.1346 81.278 10.2559 80.718 10.4986 80.298C10.7506 79.878 11.0959 79.542 11.5346 79.29C11.9826 79.0287 12.5146 78.8047 13.1306 78.618L13.9006 78.38C14.3206 78.2493 14.6892 78.0907 15.0066 77.904C15.3239 77.708 15.5712 77.4653 15.7486 77.176C15.9259 76.8773 16.0146 76.5133 16.0146 76.084V76.028C16.0146 75.412 15.7999 74.9267 15.3706 74.572C14.9412 74.208 14.3906 74.026 13.7186 74.026C13.0092 74.026 12.4306 74.2173 11.9826 74.6C11.5346 74.9733 11.3106 75.5427 11.3106 76.308V76.504H10.1906V76.322C10.1906 75.6127 10.3446 75.0107 10.6526 74.516C10.9606 74.0213 11.3806 73.648 11.9126 73.396C12.4446 73.1347 13.0466 73.004 13.7186 73.004C14.3906 73.004 14.9832 73.13 15.4966 73.382C16.0192 73.634 16.4252 73.984 16.7146 74.432C17.0039 74.88 17.1486 75.4027 17.1486 76V76.126C17.1486 76.7607 17.0226 77.288 16.7706 77.708C16.5186 78.1187 16.1686 78.4547 15.7206 78.716C15.2819 78.9773 14.7639 79.2013 14.1666 79.388L13.4106 79.626C12.9346 79.7753 12.5379 79.934 12.2206 80.102C11.9126 80.2607 11.6792 80.466 11.5206 80.718C11.3619 80.97 11.2826 81.3107 11.2826 81.74V81.978H17.0646V83H10.1346ZM21.9731 83.196C21.2544 83.196 20.6384 83.07 20.1251 82.818C19.6211 82.5567 19.2384 82.202 18.9771 81.754C18.7158 81.306 18.5851 80.7973 18.5851 80.228H19.7191C19.7191 80.8067 19.9104 81.278 20.2931 81.642C20.6758 81.9967 21.2358 82.174 21.9731 82.174C22.7478 82.174 23.3404 81.9687 23.7511 81.558C24.1711 81.138 24.3811 80.564 24.3811 79.836V78.478H24.1991C24.0218 78.758 23.7371 79.0193 23.3451 79.262C22.9624 79.4953 22.4211 79.612 21.7211 79.612C21.1331 79.612 20.5918 79.4813 20.0971 79.22C19.6118 78.9587 19.2244 78.59 18.9351 78.114C18.6458 77.638 18.5011 77.0733 18.5011 76.42V76.252C18.5011 75.58 18.6551 75.006 18.9631 74.53C19.2711 74.0447 19.6864 73.6713 20.2091 73.41C20.7411 73.1393 21.3431 73.004 22.0151 73.004C22.6964 73.004 23.2984 73.1393 23.8211 73.41C24.3531 73.6713 24.7684 74.0493 25.0671 74.544C25.3658 75.0293 25.5151 75.6173 25.5151 76.308V79.724C25.5151 80.452 25.3704 81.0773 25.0811 81.6C24.8011 82.1133 24.3951 82.51 23.8631 82.79C23.3311 83.0607 22.7011 83.196 21.9731 83.196ZM22.0151 78.66C22.4818 78.66 22.8924 78.5667 23.2471 78.38C23.6018 78.184 23.8771 77.918 24.0731 77.582C24.2784 77.2367 24.3811 76.8353 24.3811 76.378V76.266C24.3811 75.566 24.1618 75.02 23.7231 74.628C23.2938 74.2267 22.7244 74.026 22.0151 74.026C21.3058 74.026 20.7318 74.2267 20.2931 74.628C19.8544 75.02 19.6351 75.566 19.6351 76.266V76.378C19.6351 76.8353 19.7331 77.2367 19.9291 77.582C20.1344 77.918 20.4144 78.184 20.7691 78.38C21.1331 78.5667 21.5484 78.66 22.0151 78.66ZM30.8394 83.196C29.7287 83.196 28.842 82.8693 28.1794 82.216C27.526 81.5533 27.1994 80.564 27.1994 79.248V76.952C27.1994 75.6453 27.526 74.6607 28.1794 73.998C28.842 73.3353 29.7287 73.004 30.8394 73.004C31.9594 73.004 32.846 73.3353 33.4994 73.998C34.162 74.6607 34.4934 75.6453 34.4934 76.952V79.248C34.4934 80.564 34.162 81.5533 33.4994 82.216C32.846 82.8693 31.9594 83.196 30.8394 83.196ZM30.8394 82.174C31.6794 82.174 32.3094 81.922 32.7294 81.418C33.1494 80.914 33.3594 80.2093 33.3594 79.304V76.882C33.3594 75.9767 33.1447 75.2767 32.7154 74.782C32.286 74.278 31.6607 74.026 30.8394 74.026C30.018 74.026 29.3927 74.278 28.9634 74.782C28.5434 75.286 28.3334 75.986 28.3334 76.882V79.304C28.3334 80.2187 28.5434 80.928 28.9634 81.432C29.3834 81.9267 30.0087 82.174 30.8394 82.174Z" fill="#868FA0"/>
<path d="M3.598 136V126.956H3.388L1.484 130.442H0.252L2.59 126.2H4.732V136H3.598ZM7.61556 136.196C7.3449 136.196 7.11623 136.107 6.92956 135.93C6.75223 135.753 6.66356 135.524 6.66356 135.244C6.66356 134.964 6.75223 134.735 6.92956 134.558C7.11623 134.381 7.3449 134.292 7.61556 134.292C7.89556 134.292 8.12423 134.381 8.30156 134.558C8.4789 134.735 8.56756 134.964 8.56756 135.244C8.56756 135.524 8.4789 135.753 8.30156 135.93C8.12423 136.107 7.89556 136.196 7.61556 136.196ZM10.1346 136V134.978C10.1346 134.278 10.2559 133.718 10.4986 133.298C10.7506 132.878 11.0959 132.542 11.5346 132.29C11.9826 132.029 12.5146 131.805 13.1306 131.618L13.9006 131.38C14.3206 131.249 14.6892 131.091 15.0066 130.904C15.3239 130.708 15.5712 130.465 15.7486 130.176C15.9259 129.877 16.0146 129.513 16.0146 129.084V129.028C16.0146 128.412 15.7999 127.927 15.3706 127.572C14.9412 127.208 14.3906 127.026 13.7186 127.026C13.0092 127.026 12.4306 127.217 11.9826 127.6C11.5346 127.973 11.3106 128.543 11.3106 129.308V129.504H10.1906V129.322C10.1906 128.613 10.3446 128.011 10.6526 127.516C10.9606 127.021 11.3806 126.648 11.9126 126.396C12.4446 126.135 13.0466 126.004 13.7186 126.004C14.3906 126.004 14.9832 126.13 15.4966 126.382C16.0192 126.634 16.4252 126.984 16.7146 127.432C17.0039 127.88 17.1486 128.403 17.1486 129V129.126C17.1486 129.761 17.0226 130.288 16.7706 130.708C16.5186 131.119 16.1686 131.455 15.7206 131.716C15.2819 131.977 14.7639 132.201 14.1666 132.388L13.4106 132.626C12.9346 132.775 12.5379 132.934 12.2206 133.102C11.9126 133.261 11.6792 133.466 11.5206 133.718C11.3619 133.97 11.2826 134.311 11.2826 134.74V134.978H17.0646V136H10.1346ZM22.1821 136.196C21.4261 136.196 20.7681 136.084 20.2081 135.86C19.6575 135.627 19.2281 135.305 18.9201 134.894C18.6215 134.474 18.4721 133.984 18.4721 133.424V133.27C18.4721 132.785 18.5748 132.383 18.7801 132.066C18.9855 131.749 19.2328 131.506 19.5221 131.338C19.8208 131.161 20.0961 131.049 20.3481 131.002V130.82C20.0961 130.745 19.8348 130.624 19.5641 130.456C19.3028 130.288 19.0835 130.059 18.9061 129.77C18.7381 129.481 18.6541 129.126 18.6541 128.706V128.552C18.6541 128.02 18.8035 127.567 19.1021 127.194C19.4101 126.811 19.8301 126.517 20.3621 126.312C20.8941 126.107 21.5008 126.004 22.1821 126.004C22.8728 126.004 23.4795 126.107 24.0021 126.312C24.5341 126.517 24.9495 126.811 25.2481 127.194C25.5561 127.567 25.7101 128.02 25.7101 128.552V128.706C25.7101 129.126 25.6261 129.481 25.4581 129.77C25.2901 130.059 25.0755 130.288 24.8141 130.456C24.5528 130.624 24.2915 130.745 24.0301 130.82V131.002C24.2915 131.049 24.5668 131.161 24.8561 131.338C25.1455 131.506 25.3881 131.749 25.5841 132.066C25.7895 132.383 25.8921 132.785 25.8921 133.27V133.424C25.8921 133.984 25.7428 134.474 25.4441 134.894C25.1455 135.305 24.7161 135.627 24.1561 135.86C23.6055 136.084 22.9475 136.196 22.1821 136.196ZM22.1821 135.174C22.9755 135.174 23.6008 135.02 24.0581 134.712C24.5248 134.404 24.7581 133.956 24.7581 133.368V133.256C24.7581 132.668 24.5295 132.22 24.0721 131.912C23.6148 131.604 22.9848 131.45 22.1821 131.45C21.3888 131.45 20.7635 131.604 20.3061 131.912C19.8488 132.22 19.6201 132.668 19.6201 133.256V133.368C19.6201 133.956 19.8488 134.404 20.3061 134.712C20.7728 135.02 21.3981 135.174 22.1821 135.174ZM22.1821 130.428C22.9288 130.428 23.5121 130.288 23.9321 130.008C24.3615 129.719 24.5761 129.313 24.5761 128.79V128.678C24.5761 128.146 24.3615 127.74 23.9321 127.46C23.5028 127.171 22.9195 127.026 22.1821 127.026C21.4448 127.026 20.8615 127.171 20.4321 127.46C20.0028 127.74 19.7881 128.146 19.7881 128.678V128.79C19.7881 129.313 20.0028 129.719 20.4321 130.008C20.8615 130.288 21.4448 130.428 22.1821 130.428ZM31.0308 136.196C29.9201 136.196 29.0334 135.869 28.3708 135.216C27.7174 134.553 27.3908 133.564 27.3908 132.248V129.952C27.3908 128.645 27.7174 127.661 28.3708 126.998C29.0334 126.335 29.9201 126.004 31.0308 126.004C32.1508 126.004 33.0374 126.335 33.6908 126.998C34.3534 127.661 34.6848 128.645 34.6848 129.952V132.248C34.6848 133.564 34.3534 134.553 33.6908 135.216C33.0374 135.869 32.1508 136.196 31.0308 136.196ZM31.0308 135.174C31.8708 135.174 32.5008 134.922 32.9208 134.418C33.3408 133.914 33.5508 133.209 33.5508 132.304V129.882C33.5508 128.977 33.3361 128.277 32.9068 127.782C32.4774 127.278 31.8521 127.026 31.0308 127.026C30.2094 127.026 29.5841 127.278 29.1548 127.782C28.7348 128.286 28.5248 128.986 28.5248 129.882V132.304C28.5248 133.219 28.7348 133.928 29.1548 134.432C29.5748 134.927 30.2001 135.174 31.0308 135.174Z" fill="#868FA0"/>
<path d="M3.598 189V179.956H3.388L1.484 183.442H0.252L2.59 179.2H4.732V189H3.598ZM7.61556 189.196C7.3449 189.196 7.11623 189.107 6.92956 188.93C6.75223 188.753 6.66356 188.524 6.66356 188.244C6.66356 187.964 6.75223 187.735 6.92956 187.558C7.11623 187.381 7.3449 187.292 7.61556 187.292C7.89556 187.292 8.12423 187.381 8.30156 187.558C8.4789 187.735 8.56756 187.964 8.56756 188.244C8.56756 188.524 8.4789 188.753 8.30156 188.93C8.12423 189.107 7.89556 189.196 7.61556 189.196ZM10.1346 189V187.978C10.1346 187.278 10.2559 186.718 10.4986 186.298C10.7506 185.878 11.0959 185.542 11.5346 185.29C11.9826 185.029 12.5146 184.805 13.1306 184.618L13.9006 184.38C14.3206 184.249 14.6892 184.091 15.0066 183.904C15.3239 183.708 15.5712 183.465 15.7486 183.176C15.9259 182.877 16.0146 182.513 16.0146 182.084V182.028C16.0146 181.412 15.7999 180.927 15.3706 180.572C14.9412 180.208 14.3906 180.026 13.7186 180.026C13.0092 180.026 12.4306 180.217 11.9826 180.6C11.5346 180.973 11.3106 181.543 11.3106 182.308V182.504H10.1906V182.322C10.1906 181.613 10.3446 181.011 10.6526 180.516C10.9606 180.021 11.3806 179.648 11.9126 179.396C12.4446 179.135 13.0466 179.004 13.7186 179.004C14.3906 179.004 14.9832 179.13 15.4966 179.382C16.0192 179.634 16.4252 179.984 16.7146 180.432C17.0039 180.88 17.1486 181.403 17.1486 182V182.126C17.1486 182.761 17.0226 183.288 16.7706 183.708C16.5186 184.119 16.1686 184.455 15.7206 184.716C15.2819 184.977 14.7639 185.201 14.1666 185.388L13.4106 185.626C12.9346 185.775 12.5379 185.934 12.2206 186.102C11.9126 186.261 11.6792 186.466 11.5206 186.718C11.3619 186.97 11.2826 187.311 11.2826 187.74V187.978H17.0646V189H10.1346ZM19.8468 189V188.65C19.8468 188.323 19.8748 188.048 19.9308 187.824C19.9868 187.6 20.0941 187.334 20.2528 187.026L23.9908 180.376V180.222H18.1668V179.2H25.1808V180.544L21.2748 187.544C21.1628 187.74 21.0834 187.917 21.0368 188.076C20.9994 188.235 20.9808 188.435 20.9808 188.678V189H19.8468ZM29.9917 189.196C28.8811 189.196 27.9944 188.869 27.3317 188.216C26.6784 187.553 26.3517 186.564 26.3517 185.248V182.952C26.3517 181.645 26.6784 180.661 27.3317 179.998C27.9944 179.335 28.8811 179.004 29.9917 179.004C31.1117 179.004 31.9984 179.335 32.6517 179.998C33.3144 180.661 33.6457 181.645 33.6457 182.952V185.248C33.6457 186.564 33.3144 187.553 32.6517 188.216C31.9984 188.869 31.1117 189.196 29.9917 189.196ZM29.9917 188.174C30.8317 188.174 31.4617 187.922 31.8817 187.418C32.3017 186.914 32.5117 186.209 32.5117 185.304V182.882C32.5117 181.977 32.2971 181.277 31.8677 180.782C31.4384 180.278 30.8131 180.026 29.9917 180.026C29.1704 180.026 28.5451 180.278 28.1157 180.782C27.6957 181.286 27.4857 181.986 27.4857 182.882V185.304C27.4857 186.219 27.6957 186.928 28.1157 187.432C28.5357 187.927 29.1611 188.174 29.9917 188.174Z" fill="#868FA0"/>
<path d="M3.598 242V232.956H3.388L1.484 236.442H0.252L2.59 232.2H4.732V242H3.598ZM7.61556 242.196C7.3449 242.196 7.11623 242.107 6.92956 241.93C6.75223 241.753 6.66356 241.524 6.66356 241.244C6.66356 240.964 6.75223 240.735 6.92956 240.558C7.11623 240.381 7.3449 240.292 7.61556 240.292C7.89556 240.292 8.12423 240.381 8.30156 240.558C8.4789 240.735 8.56756 240.964 8.56756 241.244C8.56756 241.524 8.4789 241.753 8.30156 241.93C8.12423 242.107 7.89556 242.196 7.61556 242.196ZM10.1346 242V240.978C10.1346 240.278 10.2559 239.718 10.4986 239.298C10.7506 238.878 11.0959 238.542 11.5346 238.29C11.9826 238.029 12.5146 237.805 13.1306 237.618L13.9006 237.38C14.3206 237.249 14.6892 237.091 15.0066 236.904C15.3239 236.708 15.5712 236.465 15.7486 236.176C15.9259 235.877 16.0146 235.513 16.0146 235.084V235.028C16.0146 234.412 15.7999 233.927 15.3706 233.572C14.9412 233.208 14.3906 233.026 13.7186 233.026C13.0092 233.026 12.4306 233.217 11.9826 233.6C11.5346 233.973 11.3106 234.543 11.3106 235.308V235.504H10.1906V235.322C10.1906 234.613 10.3446 234.011 10.6526 233.516C10.9606 233.021 11.3806 232.648 11.9126 232.396C12.4446 232.135 13.0466 232.004 13.7186 232.004C14.3906 232.004 14.9832 232.13 15.4966 232.382C16.0192 232.634 16.4252 232.984 16.7146 233.432C17.0039 233.88 17.1486 234.403 17.1486 235V235.126C17.1486 235.761 17.0226 236.288 16.7706 236.708C16.5186 237.119 16.1686 237.455 15.7206 237.716C15.2819 237.977 14.7639 238.201 14.1666 238.388L13.4106 238.626C12.9346 238.775 12.5379 238.934 12.2206 239.102C11.9126 239.261 11.6792 239.466 11.5206 239.718C11.3619 239.97 11.2826 240.311 11.2826 240.74V240.978H17.0646V242H10.1346ZM22.1681 242.196C21.4961 242.196 20.8941 242.065 20.3621 241.804C19.8395 241.533 19.4241 241.151 19.1161 240.656C18.8175 240.161 18.6681 239.573 18.6681 238.892V235.476C18.6681 234.739 18.8128 234.113 19.1021 233.6C19.3915 233.087 19.7975 232.695 20.3201 232.424C20.8521 232.144 21.4821 232.004 22.2101 232.004C22.9288 232.004 23.5401 232.135 24.0441 232.396C24.5575 232.648 24.9448 232.998 25.2061 233.446C25.4768 233.885 25.6121 234.393 25.6121 234.972H24.4641C24.4641 234.393 24.2775 233.927 23.9041 233.572C23.5308 233.208 22.9661 233.026 22.2101 233.026C21.4448 233.026 20.8521 233.236 20.4321 233.656C20.0121 234.067 19.8021 234.636 19.8021 235.364V236.722H19.9981C20.1661 236.442 20.4461 236.185 20.8381 235.952C21.2301 235.709 21.7761 235.588 22.4761 235.588C23.0641 235.588 23.6008 235.719 24.0861 235.98C24.5715 236.241 24.9588 236.61 25.2481 237.086C25.5375 237.562 25.6821 238.127 25.6821 238.78V238.948C25.6821 239.611 25.5281 240.185 25.2201 240.67C24.9215 241.155 24.5061 241.533 23.9741 241.804C23.4421 242.065 22.8401 242.196 22.1681 242.196ZM22.1681 241.174C22.8775 241.174 23.4515 240.973 23.8901 240.572C24.3288 240.171 24.5481 239.625 24.5481 238.934V238.822C24.5481 238.355 24.4455 237.954 24.2401 237.618C24.0441 237.282 23.7688 237.021 23.4141 236.834C23.0595 236.638 22.6441 236.54 22.1681 236.54C21.7015 236.54 21.2908 236.638 20.9361 236.834C20.5815 237.021 20.3015 237.282 20.0961 237.618C19.9001 237.954 19.8021 238.355 19.8021 238.822V238.934C19.8021 239.625 20.0215 240.171 20.4601 240.572C20.8988 240.973 21.4681 241.174 22.1681 241.174ZM30.8804 242.196C29.7697 242.196 28.8831 241.869 28.2204 241.216C27.5671 240.553 27.2404 239.564 27.2404 238.248V235.952C27.2404 234.645 27.5671 233.661 28.2204 232.998C28.8831 232.335 29.7697 232.004 30.8804 232.004C32.0004 232.004 32.8871 232.335 33.5404 232.998C34.2031 233.661 34.5344 234.645 34.5344 235.952V238.248C34.5344 239.564 34.2031 240.553 33.5404 241.216C32.8871 241.869 32.0004 242.196 30.8804 242.196ZM30.8804 241.174C31.7204 241.174 32.3504 240.922 32.7704 240.418C33.1904 239.914 33.4004 239.209 33.4004 238.304V235.882C33.4004 234.977 33.1857 234.277 32.7564 233.782C32.3271 233.278 31.7017 233.026 30.8804 233.026C30.0591 233.026 29.4337 233.278 29.0044 233.782C28.5844 234.286 28.3744 234.986 28.3744 235.882V238.304C28.3744 239.219 28.5844 239.928 29.0044 240.432C29.4244 240.927 30.0497 241.174 30.8804 241.174Z" fill="#868FA0"/>
<path d="M3.598 295V285.956H3.388L1.484 289.442H0.252L2.59 285.2H4.732V295H3.598ZM7.61556 295.196C7.3449 295.196 7.11623 295.107 6.92956 294.93C6.75223 294.753 6.66356 294.524 6.66356 294.244C6.66356 293.964 6.75223 293.735 6.92956 293.558C7.11623 293.381 7.3449 293.292 7.61556 293.292C7.89556 293.292 8.12423 293.381 8.30156 293.558C8.4789 293.735 8.56756 293.964 8.56756 294.244C8.56756 294.524 8.4789 294.753 8.30156 294.93C8.12423 295.107 7.89556 295.196 7.61556 295.196ZM10.1346 295V293.978C10.1346 293.278 10.2559 292.718 10.4986 292.298C10.7506 291.878 11.0959 291.542 11.5346 291.29C11.9826 291.029 12.5146 290.805 13.1306 290.618L13.9006 290.38C14.3206 290.249 14.6892 290.091 15.0066 289.904C15.3239 289.708 15.5712 289.465 15.7486 289.176C15.9259 288.877 16.0146 288.513 16.0146 288.084V288.028C16.0146 287.412 15.7999 286.927 15.3706 286.572C14.9412 286.208 14.3906 286.026 13.7186 286.026C13.0092 286.026 12.4306 286.217 11.9826 286.6C11.5346 286.973 11.3106 287.543 11.3106 288.308V288.504H10.1906V288.322C10.1906 287.613 10.3446 287.011 10.6526 286.516C10.9606 286.021 11.3806 285.648 11.9126 285.396C12.4446 285.135 13.0466 285.004 13.7186 285.004C14.3906 285.004 14.9832 285.13 15.4966 285.382C16.0192 285.634 16.4252 285.984 16.7146 286.432C17.0039 286.88 17.1486 287.403 17.1486 288V288.126C17.1486 288.761 17.0226 289.288 16.7706 289.708C16.5186 290.119 16.1686 290.455 15.7206 290.716C15.2819 290.977 14.7639 291.201 14.1666 291.388L13.4106 291.626C12.9346 291.775 12.5379 291.934 12.2206 292.102C11.9126 292.261 11.6792 292.466 11.5206 292.718C11.3619 292.97 11.2826 293.311 11.2826 293.74V293.978H17.0646V295H10.1346ZM22.0561 295.196C21.3375 295.196 20.7168 295.061 20.1941 294.79C19.6715 294.51 19.2655 294.127 18.9761 293.642C18.6868 293.147 18.5421 292.578 18.5421 291.934V291.766H19.6761V291.892C19.6761 292.629 19.8908 293.194 20.3201 293.586C20.7495 293.978 21.3188 294.174 22.0281 294.174C22.7748 294.174 23.3581 293.964 23.7781 293.544C24.1981 293.124 24.4081 292.55 24.4081 291.822V291.696C24.4081 290.996 24.2028 290.441 23.7921 290.03C23.3908 289.61 22.8681 289.4 22.2241 289.4C21.8508 289.4 21.5428 289.461 21.3001 289.582C21.0575 289.694 20.8661 289.839 20.7261 290.016C20.5861 290.184 20.4695 290.347 20.3761 290.506H18.8361V285.2H25.2761V286.222H19.9701V289.61H20.1661C20.2688 289.423 20.4088 289.241 20.5861 289.064C20.7728 288.887 21.0201 288.737 21.3281 288.616C21.6361 288.495 22.0188 288.434 22.4761 288.434C23.0455 288.434 23.5588 288.565 24.0161 288.826C24.4828 289.087 24.8515 289.461 25.1221 289.946C25.4021 290.431 25.5421 291.01 25.5421 291.682V291.836C25.5421 292.499 25.4021 293.082 25.1221 293.586C24.8421 294.09 24.4408 294.487 23.9181 294.776C23.3955 295.056 22.7748 295.196 22.0561 295.196ZM30.689 295.196C29.5783 295.196 28.6917 294.869 28.029 294.216C27.3757 293.553 27.049 292.564 27.049 291.248V288.952C27.049 287.645 27.3757 286.661 28.029 285.998C28.6917 285.335 29.5783 285.004 30.689 285.004C31.809 285.004 32.6957 285.335 33.349 285.998C34.0117 286.661 34.343 287.645 34.343 288.952V291.248C34.343 292.564 34.0117 293.553 33.349 294.216C32.6957 294.869 31.809 295.196 30.689 295.196ZM30.689 294.174C31.529 294.174 32.159 293.922 32.579 293.418C32.999 292.914 33.209 292.209 33.209 291.304V288.882C33.209 287.977 32.9943 287.277 32.565 286.782C32.1357 286.278 31.5103 286.026 30.689 286.026C29.8677 286.026 29.2423 286.278 28.813 286.782C28.393 287.286 28.183 287.986 28.183 288.882V291.304C28.183 292.219 28.393 292.928 28.813 293.432C29.233 293.927 29.8583 294.174 30.689 294.174Z" fill="#868FA0"/>
<path d="M3.598 348V338.956H3.388L1.484 342.442H0.252L2.59 338.2H4.732V348H3.598ZM7.61556 348.196C7.3449 348.196 7.11623 348.107 6.92956 347.93C6.75223 347.753 6.66356 347.524 6.66356 347.244C6.66356 346.964 6.75223 346.735 6.92956 346.558C7.11623 346.381 7.3449 346.292 7.61556 346.292C7.89556 346.292 8.12423 346.381 8.30156 346.558C8.4789 346.735 8.56756 346.964 8.56756 347.244C8.56756 347.524 8.4789 347.753 8.30156 347.93C8.12423 348.107 7.89556 348.196 7.61556 348.196ZM10.1346 348V346.978C10.1346 346.278 10.2559 345.718 10.4986 345.298C10.7506 344.878 11.0959 344.542 11.5346 344.29C11.9826 344.029 12.5146 343.805 13.1306 343.618L13.9006 343.38C14.3206 343.249 14.6892 343.091 15.0066 342.904C15.3239 342.708 15.5712 342.465 15.7486 342.176C15.9259 341.877 16.0146 341.513 16.0146 341.084V341.028C16.0146 340.412 15.7999 339.927 15.3706 339.572C14.9412 339.208 14.3906 339.026 13.7186 339.026C13.0092 339.026 12.4306 339.217 11.9826 339.6C11.5346 339.973 11.3106 340.543 11.3106 341.308V341.504H10.1906V341.322C10.1906 340.613 10.3446 340.011 10.6526 339.516C10.9606 339.021 11.3806 338.648 11.9126 338.396C12.4446 338.135 13.0466 338.004 13.7186 338.004C14.3906 338.004 14.9832 338.13 15.4966 338.382C16.0192 338.634 16.4252 338.984 16.7146 339.432C17.0039 339.88 17.1486 340.403 17.1486 341V341.126C17.1486 341.761 17.0226 342.288 16.7706 342.708C16.5186 343.119 16.1686 343.455 15.7206 343.716C15.2819 343.977 14.7639 344.201 14.1666 344.388L13.4106 344.626C12.9346 344.775 12.5379 344.934 12.2206 345.102C11.9126 345.261 11.6792 345.466 11.5206 345.718C11.3619 345.97 11.2826 346.311 11.2826 346.74V346.978H17.0646V348H10.1346ZM22.976 348V345.998H17.866V344.654L21.982 338.2H24.11V344.976H25.79V345.998H24.11V348H22.976ZM19 344.976H22.976V338.886H22.78L19 344.808V344.976ZM30.648 348.196C29.5373 348.196 28.6506 347.869 27.988 347.216C27.3346 346.553 27.008 345.564 27.008 344.248V341.952C27.008 340.645 27.3346 339.661 27.988 338.998C28.6506 338.335 29.5373 338.004 30.648 338.004C31.768 338.004 32.6546 338.335 33.308 338.998C33.9706 339.661 34.302 340.645 34.302 341.952V344.248C34.302 345.564 33.9706 346.553 33.308 347.216C32.6546 347.869 31.768 348.196 30.648 348.196ZM30.648 347.174C31.488 347.174 32.118 346.922 32.538 346.418C32.958 345.914 33.168 345.209 33.168 344.304V341.882C33.168 340.977 32.9533 340.277 32.524 339.782C32.0946 339.278 31.4693 339.026 30.648 339.026C29.8266 339.026 29.2013 339.278 28.772 339.782C28.352 340.286 28.142 340.986 28.142 341.882V344.304C28.142 345.219 28.352 345.928 28.772 346.432C29.192 346.927 29.8173 347.174 30.648 347.174Z" fill="#868FA0"/>
<path d="M3.598 401V391.956H3.388L1.484 395.442H0.252L2.59 391.2H4.732V401H3.598ZM7.61556 401.196C7.3449 401.196 7.11623 401.107 6.92956 400.93C6.75223 400.753 6.66356 400.524 6.66356 400.244C6.66356 399.964 6.75223 399.735 6.92956 399.558C7.11623 399.381 7.3449 399.292 7.61556 399.292C7.89556 399.292 8.12423 399.381 8.30156 399.558C8.4789 399.735 8.56756 399.964 8.56756 400.244C8.56756 400.524 8.4789 400.753 8.30156 400.93C8.12423 401.107 7.89556 401.196 7.61556 401.196ZM10.1346 401V399.978C10.1346 399.278 10.2559 398.718 10.4986 398.298C10.7506 397.878 11.0959 397.542 11.5346 397.29C11.9826 397.029 12.5146 396.805 13.1306 396.618L13.9006 396.38C14.3206 396.249 14.6892 396.091 15.0066 395.904C15.3239 395.708 15.5712 395.465 15.7486 395.176C15.9259 394.877 16.0146 394.513 16.0146 394.084V394.028C16.0146 393.412 15.7999 392.927 15.3706 392.572C14.9412 392.208 14.3906 392.026 13.7186 392.026C13.0092 392.026 12.4306 392.217 11.9826 392.6C11.5346 392.973 11.3106 393.543 11.3106 394.308V394.504H10.1906V394.322C10.1906 393.613 10.3446 393.011 10.6526 392.516C10.9606 392.021 11.3806 391.648 11.9126 391.396C12.4446 391.135 13.0466 391.004 13.7186 391.004C14.3906 391.004 14.9832 391.13 15.4966 391.382C16.0192 391.634 16.4252 391.984 16.7146 392.432C17.0039 392.88 17.1486 393.403 17.1486 394V394.126C17.1486 394.761 17.0226 395.288 16.7706 395.708C16.5186 396.119 16.1686 396.455 15.7206 396.716C15.2819 396.977 14.7639 397.201 14.1666 397.388L13.4106 397.626C12.9346 397.775 12.5379 397.934 12.2206 398.102C11.9126 398.261 11.6792 398.466 11.5206 398.718C11.3619 398.97 11.2826 399.311 11.2826 399.74V399.978H17.0646V401H10.1346ZM22.0154 401.196C21.3248 401.196 20.7041 401.065 20.1534 400.804C19.6121 400.543 19.1828 400.165 18.8654 399.67C18.5574 399.175 18.4034 398.578 18.4034 397.878V397.612H19.5374V397.864C19.5374 398.583 19.7661 399.147 20.2234 399.558C20.6808 399.969 21.2781 400.174 22.0154 400.174C22.7621 400.174 23.3408 399.983 23.7514 399.6C24.1714 399.208 24.3814 398.718 24.3814 398.13V398.018C24.3814 397.589 24.2788 397.243 24.0734 396.982C23.8681 396.711 23.5881 396.515 23.2334 396.394C22.8881 396.263 22.5054 396.198 22.0854 396.198H20.4894V394.784L24.2274 392.39V392.222H18.6414V391.2H25.4314V392.782L21.7774 395.134V395.302H22.4774C23.0281 395.302 23.5321 395.405 23.9894 395.61C24.4561 395.806 24.8248 396.105 25.0954 396.506C25.3754 396.898 25.5154 397.393 25.5154 397.99V398.144C25.5154 398.76 25.3708 399.297 25.0814 399.754C24.7921 400.211 24.3861 400.566 23.8634 400.818C23.3408 401.07 22.7248 401.196 22.0154 401.196ZM30.7027 401.196C29.592 401.196 28.7053 400.869 28.0427 400.216C27.3893 399.553 27.0627 398.564 27.0627 397.248V394.952C27.0627 393.645 27.3893 392.661 28.0427 391.998C28.7053 391.335 29.592 391.004 30.7027 391.004C31.8227 391.004 32.7093 391.335 33.3627 391.998C34.0253 392.661 34.3567 393.645 34.3567 394.952V397.248C34.3567 398.564 34.0253 399.553 33.3627 400.216C32.7093 400.869 31.8227 401.196 30.7027 401.196ZM30.7027 400.174C31.5427 400.174 32.1727 399.922 32.5927 399.418C33.0127 398.914 33.2227 398.209 33.2227 397.304V394.882C33.2227 393.977 33.008 393.277 32.5787 392.782C32.1493 392.278 31.524 392.026 30.7027 392.026C29.8813 392.026 29.256 392.278 28.8267 392.782C28.4067 393.286 28.1967 393.986 28.1967 394.882V397.304C28.1967 398.219 28.4067 398.928 28.8267 399.432C29.2467 399.927 29.872 400.174 30.7027 400.174Z" fill="#868FA0"/>
<path d="M3.598 454V444.956H3.388L1.484 448.442H0.252L2.59 444.2H4.732V454H3.598ZM7.61556 454.196C7.3449 454.196 7.11623 454.107 6.92956 453.93C6.75223 453.753 6.66356 453.524 6.66356 453.244C6.66356 452.964 6.75223 452.735 6.92956 452.558C7.11623 452.381 7.3449 452.292 7.61556 452.292C7.89556 452.292 8.12423 452.381 8.30156 452.558C8.4789 452.735 8.56756 452.964 8.56756 453.244C8.56756 453.524 8.4789 453.753 8.30156 453.93C8.12423 454.107 7.89556 454.196 7.61556 454.196ZM10.1346 454V452.978C10.1346 452.278 10.2559 451.718 10.4986 451.298C10.7506 450.878 11.0959 450.542 11.5346 450.29C11.9826 450.029 12.5146 449.805 13.1306 449.618L13.9006 449.38C14.3206 449.249 14.6892 449.091 15.0066 448.904C15.3239 448.708 15.5712 448.465 15.7486 448.176C15.9259 447.877 16.0146 447.513 16.0146 447.084V447.028C16.0146 446.412 15.7999 445.927 15.3706 445.572C14.9412 445.208 14.3906 445.026 13.7186 445.026C13.0092 445.026 12.4306 445.217 11.9826 445.6C11.5346 445.973 11.3106 446.543 11.3106 447.308V447.504H10.1906V447.322C10.1906 446.613 10.3446 446.011 10.6526 445.516C10.9606 445.021 11.3806 444.648 11.9126 444.396C12.4446 444.135 13.0466 444.004 13.7186 444.004C14.3906 444.004 14.9832 444.13 15.4966 444.382C16.0192 444.634 16.4252 444.984 16.7146 445.432C17.0039 445.88 17.1486 446.403 17.1486 447V447.126C17.1486 447.761 17.0226 448.288 16.7706 448.708C16.5186 449.119 16.1686 449.455 15.7206 449.716C15.2819 449.977 14.7639 450.201 14.1666 450.388L13.4106 450.626C12.9346 450.775 12.5379 450.934 12.2206 451.102C11.9126 451.261 11.6792 451.466 11.5206 451.718C11.3619 451.97 11.2826 452.311 11.2826 452.74V452.978H17.0646V454H10.1346ZM18.5701 454V452.978C18.5701 452.278 18.6915 451.718 18.9341 451.298C19.1861 450.878 19.5315 450.542 19.9701 450.29C20.4181 450.029 20.9501 449.805 21.5661 449.618L22.3361 449.38C22.7561 449.249 23.1248 449.091 23.4421 448.904C23.7595 448.708 24.0068 448.465 24.1841 448.176C24.3615 447.877 24.4501 447.513 24.4501 447.084V447.028C24.4501 446.412 24.2355 445.927 23.8061 445.572C23.3768 445.208 22.8261 445.026 22.1541 445.026C21.4448 445.026 20.8661 445.217 20.4181 445.6C19.9701 445.973 19.7461 446.543 19.7461 447.308V447.504H18.6261V447.322C18.6261 446.613 18.7801 446.011 19.0881 445.516C19.3961 445.021 19.8161 444.648 20.3481 444.396C20.8801 444.135 21.4821 444.004 22.1541 444.004C22.8261 444.004 23.4188 444.13 23.9321 444.382C24.4548 444.634 24.8608 444.984 25.1501 445.432C25.4395 445.88 25.5841 446.403 25.5841 447V447.126C25.5841 447.761 25.4581 448.288 25.2061 448.708C24.9541 449.119 24.6041 449.455 24.1561 449.716C23.7175 449.977 23.1995 450.201 22.6021 450.388L21.8461 450.626C21.3701 450.775 20.9735 450.934 20.6561 451.102C20.3481 451.261 20.1148 451.466 19.9561 451.718C19.7975 451.97 19.7181 452.311 19.7181 452.74V452.978H25.5001V454H18.5701ZM30.7437 454.196C29.633 454.196 28.7463 453.869 28.0837 453.216C27.4303 452.553 27.1037 451.564 27.1037 450.248V447.952C27.1037 446.645 27.4303 445.661 28.0837 444.998C28.7463 444.335 29.633 444.004 30.7437 444.004C31.8637 444.004 32.7503 444.335 33.4037 444.998C34.0663 445.661 34.3977 446.645 34.3977 447.952V450.248C34.3977 451.564 34.0663 452.553 33.4037 453.216C32.7503 453.869 31.8637 454.196 30.7437 454.196ZM30.7437 453.174C31.5837 453.174 32.2137 452.922 32.6337 452.418C33.0537 451.914 33.2637 451.209 33.2637 450.304V447.882C33.2637 446.977 33.049 446.277 32.6197 445.782C32.1903 445.278 31.565 445.026 30.7437 445.026C29.9223 445.026 29.297 445.278 28.8677 445.782C28.4477 446.286 28.2377 446.986 28.2377 447.882V450.304C28.2377 451.219 28.4477 451.928 28.8677 452.432C29.2877 452.927 29.913 453.174 30.7437 453.174Z" fill="#868FA0"/>
<path d="M109.795 488.196C108.685 488.196 107.798 487.869 107.135 487.216C106.482 486.553 106.155 485.564 106.155 484.248V481.952C106.155 480.645 106.482 479.661 107.135 478.998C107.798 478.335 108.685 478.004 109.795 478.004C110.915 478.004 111.802 478.335 112.455 478.998C113.118 479.661 113.449 480.645 113.449 481.952V484.248C113.449 485.564 113.118 486.553 112.455 487.216C111.802 487.869 110.915 488.196 109.795 488.196ZM109.795 487.174C110.635 487.174 111.265 486.922 111.685 486.418C112.105 485.914 112.315 485.209 112.315 484.304V481.882C112.315 480.977 112.101 480.277 111.671 479.782C111.242 479.278 110.617 479.026 109.795 479.026C108.974 479.026 108.349 479.278 107.919 479.782C107.499 480.286 107.289 480.986 107.289 481.882V484.304C107.289 485.219 107.499 485.928 107.919 486.432C108.339 486.927 108.965 487.174 109.795 487.174ZM118.47 488.196C117.752 488.196 117.136 488.07 116.622 487.818C116.118 487.557 115.736 487.202 115.474 486.754C115.213 486.306 115.082 485.797 115.082 485.228H116.216C116.216 485.807 116.408 486.278 116.79 486.642C117.173 486.997 117.733 487.174 118.47 487.174C119.245 487.174 119.838 486.969 120.248 486.558C120.668 486.138 120.878 485.564 120.878 484.836V483.478H120.696C120.519 483.758 120.234 484.019 119.842 484.262C119.46 484.495 118.918 484.612 118.218 484.612C117.63 484.612 117.089 484.481 116.594 484.22C116.109 483.959 115.722 483.59 115.432 483.114C115.143 482.638 114.998 482.073 114.998 481.42V481.252C114.998 480.58 115.152 480.006 115.46 479.53C115.768 479.045 116.184 478.671 116.706 478.41C117.238 478.139 117.84 478.004 118.512 478.004C119.194 478.004 119.796 478.139 120.318 478.41C120.85 478.671 121.266 479.049 121.564 479.544C121.863 480.029 122.012 480.617 122.012 481.308V484.724C122.012 485.452 121.868 486.077 121.578 486.6C121.298 487.113 120.892 487.51 120.36 487.79C119.828 488.061 119.198 488.196 118.47 488.196ZM118.512 483.66C118.979 483.66 119.39 483.567 119.744 483.38C120.099 483.184 120.374 482.918 120.57 482.582C120.776 482.237 120.878 481.835 120.878 481.378V481.266C120.878 480.566 120.659 480.02 120.22 479.628C119.791 479.227 119.222 479.026 118.512 479.026C117.803 479.026 117.229 479.227 116.79 479.628C116.352 480.02 116.132 480.566 116.132 481.266V481.378C116.132 481.835 116.23 482.237 116.426 482.582C116.632 482.918 116.912 483.184 117.266 483.38C117.63 483.567 118.046 483.66 118.512 483.66ZM124.62 488.196C124.35 488.196 124.121 488.107 123.934 487.93C123.757 487.753 123.668 487.524 123.668 487.244C123.668 486.964 123.757 486.735 123.934 486.558C124.121 486.381 124.35 486.292 124.62 486.292C124.9 486.292 125.129 486.381 125.306 486.558C125.484 486.735 125.572 486.964 125.572 487.244C125.572 487.524 125.484 487.753 125.306 487.93C125.129 488.107 124.9 488.196 124.62 488.196ZM124.62 482.862C124.35 482.862 124.121 482.773 123.934 482.596C123.757 482.419 123.668 482.19 123.668 481.91C123.668 481.63 123.757 481.401 123.934 481.224C124.121 481.047 124.35 480.958 124.62 480.958C124.9 480.958 125.129 481.047 125.306 481.224C125.484 481.401 125.572 481.63 125.572 481.91C125.572 482.19 125.484 482.419 125.306 482.596C125.129 482.773 124.9 482.862 124.62 482.862ZM130.877 488.196C129.767 488.196 128.88 487.869 128.217 487.216C127.564 486.553 127.237 485.564 127.237 484.248V481.952C127.237 480.645 127.564 479.661 128.217 478.998C128.88 478.335 129.767 478.004 130.877 478.004C131.997 478.004 132.884 478.335 133.537 478.998C134.2 479.661 134.531 480.645 134.531 481.952V484.248C134.531 485.564 134.2 486.553 133.537 487.216C132.884 487.869 131.997 488.196 130.877 488.196ZM130.877 487.174C131.717 487.174 132.347 486.922 132.767 486.418C133.187 485.914 133.397 485.209 133.397 484.304V481.882C133.397 480.977 133.183 480.277 132.753 479.782C132.324 479.278 131.699 479.026 130.877 479.026C130.056 479.026 129.431 479.278 129.001 479.782C128.581 480.286 128.371 480.986 128.371 481.882V484.304C128.371 485.219 128.581 485.928 129.001 486.432C129.421 486.927 130.047 487.174 130.877 487.174ZM139.846 488.196C138.736 488.196 137.849 487.869 137.186 487.216C136.533 486.553 136.206 485.564 136.206 484.248V481.952C136.206 480.645 136.533 479.661 137.186 478.998C137.849 478.335 138.736 478.004 139.846 478.004C140.966 478.004 141.853 478.335 142.506 478.998C143.169 479.661 143.5 480.645 143.5 481.952V484.248C143.5 485.564 143.169 486.553 142.506 487.216C141.853 487.869 140.966 488.196 139.846 488.196ZM139.846 487.174C140.686 487.174 141.316 486.922 141.736 486.418C142.156 485.914 142.366 485.209 142.366 484.304V481.882C142.366 480.977 142.152 480.277 141.722 479.782C141.293 479.278 140.668 479.026 139.846 479.026C139.025 479.026 138.4 479.278 137.97 479.782C137.55 480.286 137.34 480.986 137.34 481.882V484.304C137.34 485.219 137.55 485.928 137.97 486.432C138.39 486.927 139.016 487.174 139.846 487.174ZM148.103 488L151.127 478.2H153.199L156.223 488H155.005L154.249 485.522H150.077L149.321 488H148.103ZM150.371 484.458H153.941L152.261 478.914H152.065L150.371 484.458ZM157.691 488V478.2H159.931L162.535 487.258H162.717L165.321 478.2H167.561V488H166.427V478.97H166.231L163.641 488H161.611L159.021 478.97H158.825V488H157.691Z" fill="#0A0A0A"/>
<path d="M284.44 488V478.956H284.23L282.326 482.442H281.094L283.432 478.2H285.574V488H284.44ZM291.174 488.196C290.063 488.196 289.177 487.869 288.514 487.216C287.861 486.553 287.534 485.564 287.534 484.248V481.952C287.534 480.645 287.861 479.661 288.514 478.998C289.177 478.335 290.063 478.004 291.174 478.004C292.294 478.004 293.181 478.335 293.834 478.998C294.497 479.661 294.828 480.645 294.828 481.952V484.248C294.828 485.564 294.497 486.553 293.834 487.216C293.181 487.869 292.294 488.196 291.174 488.196ZM291.174 487.174C292.014 487.174 292.644 486.922 293.064 486.418C293.484 485.914 293.694 485.209 293.694 484.304V481.882C293.694 480.977 293.479 480.277 293.05 479.782C292.621 479.278 291.995 479.026 291.174 479.026C290.353 479.026 289.727 479.278 289.298 479.782C288.878 480.286 288.668 480.986 288.668 481.882V484.304C288.668 485.219 288.878 485.928 289.298 486.432C289.718 486.927 290.343 487.174 291.174 487.174ZM297.427 488.196C297.156 488.196 296.927 488.107 296.741 487.93C296.563 487.753 296.475 487.524 296.475 487.244C296.475 486.964 296.563 486.735 296.741 486.558C296.927 486.381 297.156 486.292 297.427 486.292C297.707 486.292 297.935 486.381 298.113 486.558C298.29 486.735 298.379 486.964 298.379 487.244C298.379 487.524 298.29 487.753 298.113 487.93C297.935 488.107 297.707 488.196 297.427 488.196ZM297.427 482.862C297.156 482.862 296.927 482.773 296.741 482.596C296.563 482.419 296.475 482.19 296.475 481.91C296.475 481.63 296.563 481.401 296.741 481.224C296.927 481.047 297.156 480.958 297.427 480.958C297.707 480.958 297.935 481.047 298.113 481.224C298.29 481.401 298.379 481.63 298.379 481.91C298.379 482.19 298.29 482.419 298.113 482.596C297.935 482.773 297.707 482.862 297.427 482.862ZM303.684 488.196C302.573 488.196 301.686 487.869 301.024 487.216C300.37 486.553 300.044 485.564 300.044 484.248V481.952C300.044 480.645 300.37 479.661 301.024 478.998C301.686 478.335 302.573 478.004 303.684 478.004C304.804 478.004 305.69 478.335 306.344 478.998C307.006 479.661 307.338 480.645 307.338 481.952V484.248C307.338 485.564 307.006 486.553 306.344 487.216C305.69 487.869 304.804 488.196 303.684 488.196ZM303.684 487.174C304.524 487.174 305.154 486.922 305.574 486.418C305.994 485.914 306.204 485.209 306.204 484.304V481.882C306.204 480.977 305.989 480.277 305.56 479.782C305.13 479.278 304.505 479.026 303.684 479.026C302.862 479.026 302.237 479.278 301.808 479.782C301.388 480.286 301.178 480.986 301.178 481.882V484.304C301.178 485.219 301.388 485.928 301.808 486.432C302.228 486.927 302.853 487.174 303.684 487.174ZM312.652 488.196C311.542 488.196 310.655 487.869 309.992 487.216C309.339 486.553 309.012 485.564 309.012 484.248V481.952C309.012 480.645 309.339 479.661 309.992 478.998C310.655 478.335 311.542 478.004 312.652 478.004C313.772 478.004 314.659 478.335 315.312 478.998C315.975 479.661 316.306 480.645 316.306 481.952V484.248C316.306 485.564 315.975 486.553 315.312 487.216C314.659 487.869 313.772 488.196 312.652 488.196ZM312.652 487.174C313.492 487.174 314.122 486.922 314.542 486.418C314.962 485.914 315.172 485.209 315.172 484.304V481.882C315.172 480.977 314.958 480.277 314.528 479.782C314.099 479.278 313.474 479.026 312.652 479.026C311.831 479.026 311.206 479.278 310.776 479.782C310.356 480.286 310.146 480.986 310.146 481.882V484.304C310.146 485.219 310.356 485.928 310.776 486.432C311.196 486.927 311.822 487.174 312.652 487.174ZM320.909 488L323.933 478.2H326.005L329.029 488H327.811L327.055 485.522H322.883L322.127 488H320.909ZM323.177 484.458H326.747L325.067 478.914H324.871L323.177 484.458ZM330.497 488V478.2H332.737L335.341 487.258H335.523L338.127 478.2H340.367V488H339.233V478.97H339.037L336.447 488H334.417L331.827 478.97H331.631V488H330.497Z" fill="#0A0A0A"/>
<path d="M457.166 488V478.956H456.956L455.052 482.442H453.82L456.158 478.2H458.3V488H457.166ZM463.017 488V478.956H462.807L460.903 482.442H459.671L462.009 478.2H464.151V488H463.017ZM467.035 488.196C466.764 488.196 466.536 488.107 466.349 487.93C466.172 487.753 466.083 487.524 466.083 487.244C466.083 486.964 466.172 486.735 466.349 486.558C466.536 486.381 466.764 486.292 467.035 486.292C467.315 486.292 467.544 486.381 467.721 486.558C467.898 486.735 467.987 486.964 467.987 487.244C467.987 487.524 467.898 487.753 467.721 487.93C467.544 488.107 467.315 488.196 467.035 488.196ZM467.035 482.862C466.764 482.862 466.536 482.773 466.349 482.596C466.172 482.419 466.083 482.19 466.083 481.91C466.083 481.63 466.172 481.401 466.349 481.224C466.536 481.047 466.764 480.958 467.035 480.958C467.315 480.958 467.544 481.047 467.721 481.224C467.898 481.401 467.987 481.63 467.987 481.91C467.987 482.19 467.898 482.419 467.721 482.596C467.544 482.773 467.315 482.862 467.035 482.862ZM473.292 488.196C472.181 488.196 471.295 487.869 470.632 487.216C469.979 486.553 469.652 485.564 469.652 484.248V481.952C469.652 480.645 469.979 479.661 470.632 478.998C471.295 478.335 472.181 478.004 473.292 478.004C474.412 478.004 475.299 478.335 475.952 478.998C476.615 479.661 476.946 480.645 476.946 481.952V484.248C476.946 485.564 476.615 486.553 475.952 487.216C475.299 487.869 474.412 488.196 473.292 488.196ZM473.292 487.174C474.132 487.174 474.762 486.922 475.182 486.418C475.602 485.914 475.812 485.209 475.812 484.304V481.882C475.812 480.977 475.597 480.277 475.168 479.782C474.739 479.278 474.113 479.026 473.292 479.026C472.471 479.026 471.845 479.278 471.416 479.782C470.996 480.286 470.786 480.986 470.786 481.882V484.304C470.786 485.219 470.996 485.928 471.416 486.432C471.836 486.927 472.461 487.174 473.292 487.174ZM482.261 488.196C481.15 488.196 480.263 487.869 479.601 487.216C478.947 486.553 478.621 485.564 478.621 484.248V481.952C478.621 480.645 478.947 479.661 479.601 478.998C480.263 478.335 481.15 478.004 482.261 478.004C483.381 478.004 484.267 478.335 484.921 478.998C485.583 479.661 485.915 480.645 485.915 481.952V484.248C485.915 485.564 485.583 486.553 484.921 487.216C484.267 487.869 483.381 488.196 482.261 488.196ZM482.261 487.174C483.101 487.174 483.731 486.922 484.151 486.418C484.571 485.914 484.781 485.209 484.781 484.304V481.882C484.781 480.977 484.566 480.277 484.137 479.782C483.707 479.278 483.082 479.026 482.261 479.026C481.439 479.026 480.814 479.278 480.385 479.782C479.965 480.286 479.755 480.986 479.755 481.882V484.304C479.755 485.219 479.965 485.928 480.385 486.432C480.805 486.927 481.43 487.174 482.261 487.174ZM490.517 488L493.541 478.2H495.613L498.637 488H497.419L496.663 485.522H492.491L491.735 488H490.517ZM492.785 484.458H496.355L494.675 478.914H494.479L492.785 484.458ZM500.106 488V478.2H502.346L504.95 487.258H505.132L507.736 478.2H509.976V488H508.842V478.97H508.646L506.056 488H504.026L501.436 478.97H501.24V488H500.106Z" fill="#0A0A0A"/>
<path d="M627.04 488V478.956H626.83L624.926 482.442H623.694L626.032 478.2H628.174V488H627.04ZM630.036 488V486.978C630.036 486.278 630.157 485.718 630.4 485.298C630.652 484.878 630.997 484.542 631.436 484.29C631.884 484.029 632.416 483.805 633.032 483.618L633.802 483.38C634.222 483.249 634.591 483.091 634.908 482.904C635.225 482.708 635.473 482.465 635.65 482.176C635.827 481.877 635.916 481.513 635.916 481.084V481.028C635.916 480.412 635.701 479.927 635.272 479.572C634.843 479.208 634.292 479.026 633.62 479.026C632.911 479.026 632.332 479.217 631.884 479.6C631.436 479.973 631.212 480.543 631.212 481.308V481.504H630.092V481.322C630.092 480.613 630.246 480.011 630.554 479.516C630.862 479.021 631.282 478.648 631.814 478.396C632.346 478.135 632.948 478.004 633.62 478.004C634.292 478.004 634.885 478.13 635.398 478.382C635.921 478.634 636.327 478.984 636.616 479.432C636.905 479.88 637.05 480.403 637.05 481V481.126C637.05 481.761 636.924 482.288 636.672 482.708C636.42 483.119 636.07 483.455 635.622 483.716C635.183 483.977 634.665 484.201 634.068 484.388L633.312 484.626C632.836 484.775 632.439 484.934 632.122 485.102C631.814 485.261 631.581 485.466 631.422 485.718C631.263 485.97 631.184 486.311 631.184 486.74V486.978H636.966V488H630.036ZM639.493 488.196C639.223 488.196 638.994 488.107 638.807 487.93C638.63 487.753 638.541 487.524 638.541 487.244C638.541 486.964 638.63 486.735 638.807 486.558C638.994 486.381 639.223 486.292 639.493 486.292C639.773 486.292 640.002 486.381 640.179 486.558C640.357 486.735 640.445 486.964 640.445 487.244C640.445 487.524 640.357 487.753 640.179 487.93C640.002 488.107 639.773 488.196 639.493 488.196ZM639.493 482.862C639.223 482.862 638.994 482.773 638.807 482.596C638.63 482.419 638.541 482.19 638.541 481.91C638.541 481.63 638.63 481.401 638.807 481.224C638.994 481.047 639.223 480.958 639.493 480.958C639.773 480.958 640.002 481.047 640.179 481.224C640.357 481.401 640.445 481.63 640.445 481.91C640.445 482.19 640.357 482.419 640.179 482.596C640.002 482.773 639.773 482.862 639.493 482.862ZM645.751 488.196C644.64 488.196 643.753 487.869 643.091 487.216C642.437 486.553 642.111 485.564 642.111 484.248V481.952C642.111 480.645 642.437 479.661 643.091 478.998C643.753 478.335 644.64 478.004 645.751 478.004C646.871 478.004 647.757 478.335 648.411 478.998C649.073 479.661 649.405 480.645 649.405 481.952V484.248C649.405 485.564 649.073 486.553 648.411 487.216C647.757 487.869 646.871 488.196 645.751 488.196ZM645.751 487.174C646.591 487.174 647.221 486.922 647.641 486.418C648.061 485.914 648.271 485.209 648.271 484.304V481.882C648.271 480.977 648.056 480.277 647.627 479.782C647.197 479.278 646.572 479.026 645.751 479.026C644.929 479.026 644.304 479.278 643.875 479.782C643.455 480.286 643.245 480.986 643.245 481.882V484.304C643.245 485.219 643.455 485.928 643.875 486.432C644.295 486.927 644.92 487.174 645.751 487.174ZM654.719 488.196C653.609 488.196 652.722 487.869 652.059 487.216C651.406 486.553 651.079 485.564 651.079 484.248V481.952C651.079 480.645 651.406 479.661 652.059 478.998C652.722 478.335 653.609 478.004 654.719 478.004C655.839 478.004 656.726 478.335 657.379 478.998C658.042 479.661 658.373 480.645 658.373 481.952V484.248C658.373 485.564 658.042 486.553 657.379 487.216C656.726 487.869 655.839 488.196 654.719 488.196ZM654.719 487.174C655.559 487.174 656.189 486.922 656.609 486.418C657.029 485.914 657.239 485.209 657.239 484.304V481.882C657.239 480.977 657.025 480.277 656.595 479.782C656.166 479.278 655.541 479.026 654.719 479.026C653.898 479.026 653.273 479.278 652.843 479.782C652.423 480.286 652.213 480.986 652.213 481.882V484.304C652.213 485.219 652.423 485.928 652.843 486.432C653.263 486.927 653.889 487.174 654.719 487.174ZM662.976 488L666 478.2H668.072L671.096 488H669.878L669.122 485.522H664.95L664.194 488H662.976ZM665.244 484.458H668.814L667.134 478.914H666.938L665.244 484.458ZM672.564 488V478.2H674.804L677.408 487.258H677.59L680.194 478.2H682.434V488H681.3V478.97H681.104L678.514 488H676.484L673.894 478.97H673.698V488H672.564Z" fill="#0A0A0A"/>
<path d="M800.438 488.196C799.328 488.196 798.441 487.869 797.778 487.216C797.125 486.553 796.798 485.564 796.798 484.248V481.952C796.798 480.645 797.125 479.661 797.778 478.998C798.441 478.335 799.328 478.004 800.438 478.004C801.558 478.004 802.445 478.335 803.098 478.998C803.761 479.661 804.092 480.645 804.092 481.952V484.248C804.092 485.564 803.761 486.553 803.098 487.216C802.445 487.869 801.558 488.196 800.438 488.196ZM800.438 487.174C801.278 487.174 801.908 486.922 802.328 486.418C802.748 485.914 802.958 485.209 802.958 484.304V481.882C802.958 480.977 802.744 480.277 802.314 479.782C801.885 479.278 801.26 479.026 800.438 479.026C799.617 479.026 798.992 479.278 798.562 479.782C798.142 480.286 797.932 480.986 797.932 481.882V484.304C797.932 485.219 798.142 485.928 798.562 486.432C798.982 486.927 799.608 487.174 800.438 487.174ZM808.525 488V478.956H808.315L806.411 482.442H805.179L807.517 478.2H809.659V488H808.525ZM812.543 488.196C812.272 488.196 812.043 488.107 811.857 487.93C811.679 487.753 811.591 487.524 811.591 487.244C811.591 486.964 811.679 486.735 811.857 486.558C812.043 486.381 812.272 486.292 812.543 486.292C812.823 486.292 813.051 486.381 813.229 486.558C813.406 486.735 813.495 486.964 813.495 487.244C813.495 487.524 813.406 487.753 813.229 487.93C813.051 488.107 812.823 488.196 812.543 488.196ZM812.543 482.862C812.272 482.862 812.043 482.773 811.857 482.596C811.679 482.419 811.591 482.19 811.591 481.91C811.591 481.63 811.679 481.401 811.857 481.224C812.043 481.047 812.272 480.958 812.543 480.958C812.823 480.958 813.051 481.047 813.229 481.224C813.406 481.401 813.495 481.63 813.495 481.91C813.495 482.19 813.406 482.419 813.229 482.596C813.051 482.773 812.823 482.862 812.543 482.862ZM818.8 488.196C817.689 488.196 816.802 487.869 816.14 487.216C815.486 486.553 815.16 485.564 815.16 484.248V481.952C815.16 480.645 815.486 479.661 816.14 478.998C816.802 478.335 817.689 478.004 818.8 478.004C819.92 478.004 820.806 478.335 821.46 478.998C822.122 479.661 822.454 480.645 822.454 481.952V484.248C822.454 485.564 822.122 486.553 821.46 487.216C820.806 487.869 819.92 488.196 818.8 488.196ZM818.8 487.174C819.64 487.174 820.27 486.922 820.69 486.418C821.11 485.914 821.32 485.209 821.32 484.304V481.882C821.32 480.977 821.105 480.277 820.676 479.782C820.246 479.278 819.621 479.026 818.8 479.026C817.978 479.026 817.353 479.278 816.924 479.782C816.504 480.286 816.294 480.986 816.294 481.882V484.304C816.294 485.219 816.504 485.928 816.924 486.432C817.344 486.927 817.969 487.174 818.8 487.174ZM827.769 488.196C826.658 488.196 825.771 487.869 825.109 487.216C824.455 486.553 824.129 485.564 824.129 484.248V481.952C824.129 480.645 824.455 479.661 825.109 478.998C825.771 478.335 826.658 478.004 827.769 478.004C828.889 478.004 829.775 478.335 830.429 478.998C831.091 479.661 831.423 480.645 831.423 481.952V484.248C831.423 485.564 831.091 486.553 830.429 487.216C829.775 487.869 828.889 488.196 827.769 488.196ZM827.769 487.174C828.609 487.174 829.239 486.922 829.659 486.418C830.079 485.914 830.289 485.209 830.289 484.304V481.882C830.289 480.977 830.074 480.277 829.645 479.782C829.215 479.278 828.59 479.026 827.769 479.026C826.947 479.026 826.322 479.278 825.893 479.782C825.473 480.286 825.263 480.986 825.263 481.882V484.304C825.263 485.219 825.473 485.928 825.893 486.432C826.313 486.927 826.938 487.174 827.769 487.174ZM836.973 488V478.2H840.725C841.313 478.2 841.836 478.317 842.293 478.55C842.76 478.774 843.128 479.096 843.399 479.516C843.67 479.936 843.805 480.445 843.805 481.042V481.224C843.805 481.812 843.665 482.321 843.385 482.75C843.114 483.17 842.746 483.492 842.279 483.716C841.812 483.94 841.294 484.052 840.725 484.052H838.149V488H836.973ZM838.149 482.988H840.599C841.224 482.988 841.719 482.834 842.083 482.526C842.447 482.209 842.629 481.765 842.629 481.196V481.056C842.629 480.487 842.447 480.048 842.083 479.74C841.728 479.423 841.234 479.264 840.599 479.264H838.149V482.988ZM845.381 488V478.2H847.621L850.225 487.258H850.407L853.011 478.2H855.251V488H854.117V478.97H853.921L851.331 488H849.301L846.711 478.97H846.515V488H845.381Z" fill="#0A0A0A"/>
<path d="M972.813 488.196C971.703 488.196 970.816 487.869 970.153 487.216C969.5 486.553 969.173 485.564 969.173 484.248V481.952C969.173 480.645 969.5 479.661 970.153 478.998C970.816 478.335 971.703 478.004 972.813 478.004C973.933 478.004 974.82 478.335 975.473 478.998C976.136 479.661 976.467 480.645 976.467 481.952V484.248C976.467 485.564 976.136 486.553 975.473 487.216C974.82 487.869 973.933 488.196 972.813 488.196ZM972.813 487.174C973.653 487.174 974.283 486.922 974.703 486.418C975.123 485.914 975.333 485.209 975.333 484.304V481.882C975.333 480.977 975.119 480.277 974.689 479.782C974.26 479.278 973.635 479.026 972.813 479.026C971.992 479.026 971.367 479.278 970.937 479.782C970.517 480.286 970.307 480.986 970.307 481.882V484.304C970.307 485.219 970.517 485.928 970.937 486.432C971.357 486.927 971.983 487.174 972.813 487.174ZM978.044 488V486.978C978.044 486.278 978.166 485.718 978.408 485.298C978.66 484.878 979.006 484.542 979.444 484.29C979.892 484.029 980.424 483.805 981.04 483.618L981.81 483.38C982.23 483.249 982.599 483.091 982.916 482.904C983.234 482.708 983.481 482.465 983.658 482.176C983.836 481.877 983.924 481.513 983.924 481.084V481.028C983.924 480.412 983.71 479.927 983.28 479.572C982.851 479.208 982.3 479.026 981.628 479.026C980.919 479.026 980.34 479.217 979.892 479.6C979.444 479.973 979.22 480.543 979.22 481.308V481.504H978.1V481.322C978.1 480.613 978.254 480.011 978.562 479.516C978.87 479.021 979.29 478.648 979.822 478.396C980.354 478.135 980.956 478.004 981.628 478.004C982.3 478.004 982.893 478.13 983.406 478.382C983.929 478.634 984.335 478.984 984.624 479.432C984.914 479.88 985.058 480.403 985.058 481V481.126C985.058 481.761 984.932 482.288 984.68 482.708C984.428 483.119 984.078 483.455 983.63 483.716C983.192 483.977 982.674 484.201 982.076 484.388L981.32 484.626C980.844 484.775 980.448 484.934 980.13 485.102C979.822 485.261 979.589 485.466 979.43 485.718C979.272 485.97 979.192 486.311 979.192 486.74V486.978H984.974V488H978.044ZM987.502 488.196C987.231 488.196 987.002 488.107 986.816 487.93C986.638 487.753 986.55 487.524 986.55 487.244C986.55 486.964 986.638 486.735 986.816 486.558C987.002 486.381 987.231 486.292 987.502 486.292C987.782 486.292 988.01 486.381 988.188 486.558C988.365 486.735 988.454 486.964 988.454 487.244C988.454 487.524 988.365 487.753 988.188 487.93C988.01 488.107 987.782 488.196 987.502 488.196ZM987.502 482.862C987.231 482.862 987.002 482.773 986.816 482.596C986.638 482.419 986.55 482.19 986.55 481.91C986.55 481.63 986.638 481.401 986.816 481.224C987.002 481.047 987.231 480.958 987.502 480.958C987.782 480.958 988.01 481.047 988.188 481.224C988.365 481.401 988.454 481.63 988.454 481.91C988.454 482.19 988.365 482.419 988.188 482.596C988.01 482.773 987.782 482.862 987.502 482.862ZM993.759 488.196C992.648 488.196 991.761 487.869 991.099 487.216C990.445 486.553 990.119 485.564 990.119 484.248V481.952C990.119 480.645 990.445 479.661 991.099 478.998C991.761 478.335 992.648 478.004 993.759 478.004C994.879 478.004 995.765 478.335 996.419 478.998C997.081 479.661 997.413 480.645 997.413 481.952V484.248C997.413 485.564 997.081 486.553 996.419 487.216C995.765 487.869 994.879 488.196 993.759 488.196ZM993.759 487.174C994.599 487.174 995.229 486.922 995.649 486.418C996.069 485.914 996.279 485.209 996.279 484.304V481.882C996.279 480.977 996.064 480.277 995.635 479.782C995.205 479.278 994.58 479.026 993.759 479.026C992.937 479.026 992.312 479.278 991.883 479.782C991.463 480.286 991.253 480.986 991.253 481.882V484.304C991.253 485.219 991.463 485.928 991.883 486.432C992.303 486.927 992.928 487.174 993.759 487.174ZM1002.73 488.196C1001.62 488.196 1000.73 487.869 1000.07 487.216C999.414 486.553 999.088 485.564 999.088 484.248V481.952C999.088 480.645 999.414 479.661 1000.07 478.998C1000.73 478.335 1001.62 478.004 1002.73 478.004C1003.85 478.004 1004.73 478.335 1005.39 478.998C1006.05 479.661 1006.38 480.645 1006.38 481.952V484.248C1006.38 485.564 1006.05 486.553 1005.39 487.216C1004.73 487.869 1003.85 488.196 1002.73 488.196ZM1002.73 487.174C1003.57 487.174 1004.2 486.922 1004.62 486.418C1005.04 485.914 1005.25 485.209 1005.25 484.304V481.882C1005.25 480.977 1005.03 480.277 1004.6 479.782C1004.17 479.278 1003.55 479.026 1002.73 479.026C1001.91 479.026 1001.28 479.278 1000.85 479.782C1000.43 480.286 1000.22 480.986 1000.22 481.882V484.304C1000.22 485.219 1000.43 485.928 1000.85 486.432C1001.27 486.927 1001.9 487.174 1002.73 487.174ZM1011.93 488V478.2H1015.68C1016.27 478.2 1016.79 478.317 1017.25 478.55C1017.72 478.774 1018.09 479.096 1018.36 479.516C1018.63 479.936 1018.76 480.445 1018.76 481.042V481.224C1018.76 481.812 1018.62 482.321 1018.34 482.75C1018.07 483.17 1017.7 483.492 1017.24 483.716C1016.77 483.94 1016.25 484.052 1015.68 484.052H1013.11V488H1011.93ZM1013.11 482.988H1015.56C1016.18 482.988 1016.68 482.834 1017.04 482.526C1017.41 482.209 1017.59 481.765 1017.59 481.196V481.056C1017.59 480.487 1017.41 480.048 1017.04 479.74C1016.69 479.423 1016.19 479.264 1015.56 479.264H1013.11V482.988ZM1020.34 488V478.2H1022.58L1025.18 487.258H1025.37L1027.97 478.2H1030.21V488H1029.08V478.97H1028.88L1026.29 488H1024.26L1021.67 478.97H1021.47V488H1020.34Z" fill="#0A0A0A"/>
<path d="M1147.97 488.196C1146.86 488.196 1145.98 487.869 1145.31 487.216C1144.66 486.553 1144.33 485.564 1144.33 484.248V481.952C1144.33 480.645 1144.66 479.661 1145.31 478.998C1145.98 478.335 1146.86 478.004 1147.97 478.004C1149.09 478.004 1149.98 478.335 1150.63 478.998C1151.3 479.661 1151.63 480.645 1151.63 481.952V484.248C1151.63 485.564 1151.3 486.553 1150.63 487.216C1149.98 487.869 1149.09 488.196 1147.97 488.196ZM1147.97 487.174C1148.81 487.174 1149.44 486.922 1149.86 486.418C1150.28 485.914 1150.49 485.209 1150.49 484.304V481.882C1150.49 480.977 1150.28 480.277 1149.85 479.782C1149.42 479.278 1148.79 479.026 1147.97 479.026C1147.15 479.026 1146.53 479.278 1146.1 479.782C1145.68 480.286 1145.47 480.986 1145.47 481.882V484.304C1145.47 485.219 1145.68 485.928 1146.1 486.432C1146.52 486.927 1147.14 487.174 1147.97 487.174ZM1156.7 488.196C1156.01 488.196 1155.39 488.065 1154.84 487.804C1154.3 487.543 1153.87 487.165 1153.55 486.67C1153.25 486.175 1153.09 485.578 1153.09 484.878V484.612H1154.23V484.864C1154.23 485.583 1154.45 486.147 1154.91 486.558C1155.37 486.969 1155.97 487.174 1156.7 487.174C1157.45 487.174 1158.03 486.983 1158.44 486.6C1158.86 486.208 1159.07 485.718 1159.07 485.13V485.018C1159.07 484.589 1158.97 484.243 1158.76 483.982C1158.56 483.711 1158.28 483.515 1157.92 483.394C1157.58 483.263 1157.19 483.198 1156.77 483.198H1155.18V481.784L1158.92 479.39V479.222H1153.33V478.2H1160.12V479.782L1156.47 482.134V482.302H1157.17C1157.72 482.302 1158.22 482.405 1158.68 482.61C1159.14 482.806 1159.51 483.105 1159.78 483.506C1160.06 483.898 1160.2 484.393 1160.2 484.99V485.144C1160.2 485.76 1160.06 486.297 1159.77 486.754C1159.48 487.211 1159.07 487.566 1158.55 487.818C1158.03 488.07 1157.41 488.196 1156.7 488.196ZM1162.68 488.196C1162.4 488.196 1162.18 488.107 1161.99 487.93C1161.81 487.753 1161.72 487.524 1161.72 487.244C1161.72 486.964 1161.81 486.735 1161.99 486.558C1162.18 486.381 1162.4 486.292 1162.68 486.292C1162.96 486.292 1163.18 486.381 1163.36 486.558C1163.54 486.735 1163.63 486.964 1163.63 487.244C1163.63 487.524 1163.54 487.753 1163.36 487.93C1163.18 488.107 1162.96 488.196 1162.68 488.196ZM1162.68 482.862C1162.4 482.862 1162.18 482.773 1161.99 482.596C1161.81 482.419 1161.72 482.19 1161.72 481.91C1161.72 481.63 1161.81 481.401 1161.99 481.224C1162.18 481.047 1162.4 480.958 1162.68 480.958C1162.96 480.958 1163.18 481.047 1163.36 481.224C1163.54 481.401 1163.63 481.63 1163.63 481.91C1163.63 482.19 1163.54 482.419 1163.36 482.596C1163.18 482.773 1162.96 482.862 1162.68 482.862ZM1168.93 488.196C1167.82 488.196 1166.93 487.869 1166.27 487.216C1165.62 486.553 1165.29 485.564 1165.29 484.248V481.952C1165.29 480.645 1165.62 479.661 1166.27 478.998C1166.93 478.335 1167.82 478.004 1168.93 478.004C1170.05 478.004 1170.94 478.335 1171.59 478.998C1172.25 479.661 1172.59 480.645 1172.59 481.952V484.248C1172.59 485.564 1172.25 486.553 1171.59 487.216C1170.94 487.869 1170.05 488.196 1168.93 488.196ZM1168.93 487.174C1169.77 487.174 1170.4 486.922 1170.82 486.418C1171.24 485.914 1171.45 485.209 1171.45 484.304V481.882C1171.45 480.977 1171.24 480.277 1170.81 479.782C1170.38 479.278 1169.75 479.026 1168.93 479.026C1168.11 479.026 1167.49 479.278 1167.06 479.782C1166.64 480.286 1166.43 480.986 1166.43 481.882V484.304C1166.43 485.219 1166.64 485.928 1167.06 486.432C1167.48 486.927 1168.1 487.174 1168.93 487.174ZM1177.9 488.196C1176.79 488.196 1175.9 487.869 1175.24 487.216C1174.59 486.553 1174.26 485.564 1174.26 484.248V481.952C1174.26 480.645 1174.59 479.661 1175.24 478.998C1175.9 478.335 1176.79 478.004 1177.9 478.004C1179.02 478.004 1179.91 478.335 1180.56 478.998C1181.22 479.661 1181.55 480.645 1181.55 481.952V484.248C1181.55 485.564 1181.22 486.553 1180.56 487.216C1179.91 487.869 1179.02 488.196 1177.9 488.196ZM1177.9 487.174C1178.74 487.174 1179.37 486.922 1179.79 486.418C1180.21 485.914 1180.42 485.209 1180.42 484.304V481.882C1180.42 480.977 1180.21 480.277 1179.78 479.782C1179.35 479.278 1178.72 479.026 1177.9 479.026C1177.08 479.026 1176.45 479.278 1176.02 479.782C1175.6 480.286 1175.39 480.986 1175.39 481.882V484.304C1175.39 485.219 1175.6 485.928 1176.02 486.432C1176.44 486.927 1177.07 487.174 1177.9 487.174ZM1187.11 488V478.2H1190.86C1191.45 478.2 1191.97 478.317 1192.43 478.55C1192.89 478.774 1193.26 479.096 1193.53 479.516C1193.8 479.936 1193.94 480.445 1193.94 481.042V481.224C1193.94 481.812 1193.8 482.321 1193.52 482.75C1193.25 483.17 1192.88 483.492 1192.41 483.716C1191.94 483.94 1191.43 484.052 1190.86 484.052H1188.28V488H1187.11ZM1188.28 482.988H1190.73C1191.36 482.988 1191.85 482.834 1192.22 482.526C1192.58 482.209 1192.76 481.765 1192.76 481.196V481.056C1192.76 480.487 1192.58 480.048 1192.22 479.74C1191.86 479.423 1191.37 479.264 1190.73 479.264H1188.28V482.988ZM1195.51 488V478.2H1197.75L1200.36 487.258H1200.54L1203.14 478.2H1205.38V488H1204.25V478.97H1204.05L1201.46 488H1199.43L1196.84 478.97H1196.65V488H1195.51Z" fill="#0A0A0A"/>
<path d="M74.5889 203.175L66 196.943V449H1240V377L1222.29 352.069L1206.18 339.603L1192.76 318.828L1180.95 293.897L1153.04 299.437L1133.71 285.586L1123.51 255.115L1109.02 244.034L1098.82 210.793L1083.25 203.868H1067.15L1044.6 227.414L1031.72 232.261L1019.37 255.115L1014 244.034L1001.12 267.58L973.206 289.049L966.765 275.891H949.05L922.746 293.897L909.326 318.828L899.664 323.675L894.832 334.063L887.854 339.603L883.559 352.069L872.823 343.759L864.234 323.675L857.792 334.063L826.658 318.828L804.112 275.891L795.523 255.115L790.155 232.261L774.05 196.943L752.578 180.322L738.084 156.776V136L712.854 142.233L673.667 203.868L658.1 194.172L639.311 180.322L630.723 196.943L627.502 194.172L621.597 203.868L613.545 196.943L608.177 176.859L584.557 186.555L563.621 196.943L553.422 215.641L549.128 227.414L542.149 232.261H522.824L514.772 227.414L509.941 203.868L505.646 186.555L500.278 183.784L498.131 176.859L493.836 174.782L489.542 161.624L486.321 172.011L473.974 180.322L464.312 194.172L458.228 227.414L444.45 255.115L417.61 156.776L383.254 196.943L360.708 223.951L350.508 240.572L335.478 249.575L294.144 231.569L274.818 240.572L268.377 266.195L244.22 270.351L234.021 279.353L230.263 270.351L221.674 283.509L215.77 308.44H204.497L195.908 325.753L159.941 266.195L129.314 227.5L123.439 203.175L116.46 189.325L108.945 185.862L105.187 174.782L86.3987 203.175H74.5889Z" fill="url(#paint0_linear_564_7110)"/>
<path d="M66 196.943L74.5889 203.175H86.3987L105.187 174.782L108.945 185.862L116.46 189.325L123.439 203.175L129.314 227.5L159.941 266.195L195.908 325.753L204.497 308.44H215.77L221.674 283.509L230.263 270.351L234.021 279.353L244.22 270.351L268.377 266.195L274.818 240.572L294.144 231.569L335.478 249.575L350.508 240.572L360.708 223.951L383.254 196.943L417.61 156.776L444.45 255.115L458.228 227.414L464.312 194.172L473.974 180.322L486.321 172.011L489.542 161.624L493.836 174.782L498.131 176.859L500.278 183.784L505.646 186.555L509.941 203.868L514.772 227.414L522.824 232.261H542.149L549.128 227.414L553.422 215.641L563.621 196.943L584.557 186.555L608.177 176.859L613.545 196.943L621.597 203.868L627.502 194.172L630.723 196.943L639.311 180.322L658.1 194.172L673.667 203.868L712.854 142.233L738.084 136V156.776L752.578 180.322L774.05 196.943L790.155 232.261L795.523 255.115L804.112 275.891L826.658 318.828L857.792 334.063L864.234 323.675L872.823 343.759L883.559 352.069L887.854 339.603L894.832 334.063L899.664 323.675L909.326 318.828L922.746 293.897L949.05 275.891H966.765L973.206 289.049L1001.12 267.58L1014 244.034L1019.37 255.115L1031.72 232.261L1044.6 227.414L1067.15 203.868H1083.25L1098.82 210.793L1109.02 244.034L1123.51 255.115L1133.71 285.586L1153.04 299.437L1180.95 293.897L1192.76 318.828L1206.18 339.603L1222.29 352.069L1240 377" stroke="#EA3943" stroke-width="3" stroke-linecap="round"/>
<line x1="65.5" y1="220.5" x2="1239.5" y2="220.5" stroke="#0A0A0A" stroke-linecap="round" stroke-dasharray="8 8"/>
<rect y="203" width="61" height="32" rx="8" fill="#0054F8"/>
<path d="M15.612 223.5V215.016H15.36L14.044 218.124H12.168L14.17 213.7H17.404V223.5H15.612ZM20.4301 223.696C20.0474 223.696 19.7254 223.575 19.4641 223.332C19.2121 223.08 19.0861 222.758 19.0861 222.366C19.0861 221.974 19.2121 221.657 19.4641 221.414C19.7254 221.162 20.0474 221.036 20.4301 221.036C20.8034 221.036 21.1161 221.162 21.3681 221.414C21.6201 221.657 21.7461 221.974 21.7461 222.366C21.7461 222.758 21.6201 223.08 21.3681 223.332C21.1161 223.575 20.8034 223.696 20.4301 223.696ZM23.088 223.5V222.324C23.088 221.643 23.2 221.078 23.424 220.63C23.648 220.173 23.97 219.799 24.39 219.51C24.8193 219.211 25.342 218.969 25.958 218.782L26.896 218.488C27.2413 218.376 27.5307 218.241 27.764 218.082C27.9973 217.914 28.1747 217.713 28.296 217.48C28.4267 217.247 28.492 216.981 28.492 216.682V216.626C28.492 216.159 28.3333 215.791 28.016 215.52C27.6987 215.24 27.2647 215.1 26.714 215.1C26.1727 215.1 25.734 215.249 25.398 215.548C25.0713 215.837 24.908 216.257 24.908 216.808V217.06H23.116V216.836C23.116 216.127 23.2747 215.525 23.592 215.03C23.9093 214.535 24.3387 214.157 24.88 213.896C25.4307 213.635 26.042 213.504 26.714 213.504C27.386 213.504 27.9927 213.635 28.534 213.896C29.0753 214.148 29.5 214.507 29.808 214.974C30.1253 215.431 30.284 215.973 30.284 216.598V216.738C30.284 217.363 30.1533 217.895 29.892 218.334C29.64 218.763 29.2947 219.118 28.856 219.398C28.4173 219.669 27.918 219.893 27.358 220.07L26.462 220.35C26.0607 220.471 25.748 220.607 25.524 220.756C25.3 220.896 25.1413 221.055 25.048 221.232C24.964 221.4 24.922 221.605 24.922 221.848V221.904H30.2V223.5H23.088ZM35.1805 223.696C34.4338 223.696 33.7852 223.556 33.2345 223.276C32.6838 222.996 32.2592 222.609 31.9605 222.114C31.6618 221.619 31.5125 221.05 31.5125 220.406V217.06C31.5125 216.267 31.6712 215.609 31.9885 215.086C32.3152 214.554 32.7585 214.157 33.3185 213.896C33.8878 213.635 34.5365 213.504 35.2645 213.504C35.9925 213.504 36.6225 213.625 37.1545 213.868C37.6958 214.111 38.1112 214.461 38.4005 214.918C38.6992 215.375 38.8485 215.921 38.8485 216.556H37.0285C37.0285 216.164 36.8932 215.823 36.6225 215.534C36.3518 215.245 35.8992 215.1 35.2645 215.1C34.6392 215.1 34.1538 215.263 33.8085 215.59C33.4725 215.917 33.3045 216.369 33.3045 216.948V217.956H33.5565C33.7152 217.769 33.9578 217.592 34.2845 217.424C34.6112 217.256 35.0872 217.172 35.7125 217.172C36.2818 217.172 36.8045 217.293 37.2805 217.536C37.7658 217.779 38.1578 218.133 38.4565 218.6C38.7552 219.057 38.9045 219.613 38.9045 220.266V220.434C38.9045 221.078 38.7505 221.647 38.4425 222.142C38.1345 222.627 37.7005 223.01 37.1405 223.29C36.5805 223.561 35.9272 223.696 35.1805 223.696ZM35.2085 222.1C35.7965 222.1 36.2585 221.946 36.5945 221.638C36.9398 221.33 37.1125 220.919 37.1125 220.406V220.294C37.1125 219.949 37.0332 219.65 36.8745 219.398C36.7252 219.146 36.5058 218.95 36.2165 218.81C35.9365 218.67 35.6005 218.6 35.2085 218.6C34.8258 218.6 34.4898 218.67 34.2005 218.81C33.9112 218.95 33.6872 219.146 33.5285 219.398C33.3792 219.65 33.3045 219.949 33.3045 220.294V220.406C33.3045 220.919 33.4725 221.33 33.8085 221.638C34.1538 221.946 34.6205 222.1 35.2085 222.1ZM44.6468 223.5V221.512H39.8308V219.44L43.2188 213.7H46.4388V219.916H48.0628V221.512H46.4388V223.5H44.6468ZM41.5388 219.916H44.6468V214.848H44.3948L41.5388 219.692V219.916Z" fill="white"/>
<defs>
<linearGradient id="paint0_linear_564_7110" x1="653" y1="-112" x2="653" y2="449" gradientUnits="userSpaceOnUse">
<stop stop-color="#EA3943" stop-opacity="0.15"/>
<stop offset="1" stop-color="#EA3943" stop-opacity="0"/>
</linearGradient>
</defs>
</svg>
